#N canvas 201 49 819 575 12;
#X obj 349 274 s frequency;
#X obj 463 274 s duration;
#X floatatom 463 224 0 0 0 0 - - -;
#X obj 349 249 mtof;
#X floatatom 349 224 0 0 0 0 - - -;
#X text 82 7 ADDITIVE SYNTHESIS;
#X text 501 214 duration in tenths;
#X text 503 230 of a second;
#X text 387 223 pitch;
#X text 433 518 updated for Pd version 0.37;
#X text 26 83 Partial takes as arguments an amplitude \, a relative
frequency \, a detuning frequency \, and a relative duration. You set
absolute duration and pitch using the controls below. Hit the trigger
to make sound.;
#X text 26 34 This patch demonstrates using an abstraction \, "partial"
\, to make a simple additive synthesis instrument originally from Jean-Claude
Risset.;
#X obj 315 366 bng 25 250 50 0 empty empty empty 0 -6 0 8 -262144 -1
-1;
#X text 348 368 <-- click to play a note;
#X obj 315 402 s trigger;
#X obj 463 249 * 1000;
#X obj 199 479 *~ 0.5;
#X obj 226 532 dac~;
#X obj 349 154 r note;
#X obj 463 189 r dur;
#X obj 315 318 r play;
#X obj 402 458 osc~ 1000;
#X obj 418 390 r note;
#X obj 399 432 mtof;
#X obj 36 164 partial 1 1 0.56 0;
#X obj 36 414 partial 1.33 0.075 4.07 0;
#X obj 36 189 partial 0.67 0.9 0.56 1;
#X obj 36 214 partial 1 0.65 0.92 0;
#X obj 36 239 partial 1.8 0.55 0.92 1.7;
#X obj 36 264 partial 2.67 0.325 1.19 0;
#X obj 36 289 partial 1.67 0.35 1.7 0;
#X obj 36 314 partial 1.46 0.25 2 0;
#X obj 36 339 partial 1.33 0.2 2.74 0;
#X obj 36 364 partial 1.33 0.15 3 0;
#X obj 36 389 partial 1 0.1 3.76 0;
#X obj 143 452 catch~ sum;
#X obj 401 486 *~ 0;
#X obj 486 461 line 0;
#X msg 489 428 0.1 \, 0 500;
#X obj 238 448 r vel;
#X obj 377 520 throw~ sum;
#X connect 2 0 15 0;
#X connect 3 0 0 0;
#X connect 4 0 3 0;
#X connect 12 0 14 0;
#X connect 12 0 38 0;
#X connect 15 0 1 0;
#X connect 16 0 17 0;
#X connect 16 0 17 1;
#X connect 18 0 4 0;
#X connect 19 0 2 0;
#X connect 20 0 12 0;
#X connect 21 0 36 0;
#X connect 22 0 23 0;
#X connect 23 0 21 0;
#X connect 35 0 16 0;
#X connect 36 0 40 0;
#X connect 37 0 36 1;
#X connect 38 0 37 0;
#X connect 39 0 16 1;
