#N canvas 0 0 1362 696 10;
#X obj 480 272 poly 8;
#X obj 466 312 pack 0 0 0;
#X obj 450 362 route 1 2 3 4 5 6 7 8;
#X obj 443 98 r note;
#X msg 422 174 60;
#X obj 539 84 r dur;
#X obj 501 175 r vel;
#X obj 686 238 s har;
#X obj 735 239 s modIn;
#X floatatom 688 210 5 0 0 0 - - -;
#X floatatom 735 210 5 0 0 0 - - -;
#X floatatom 450 164 5 0 0 0 - - -;
#X floatatom 798 210 5 0 0 0 - - -;
#X obj 632 238 s dur;
#X floatatom 632 208 5 0 0 0 - - -;
#X obj 798 239 s envIn;
#X floatatom 854 210 5 0 0 0 - - -;
#X obj 854 239 s envOut;
#X obj 539 151 float;
#X obj 579 151 float;
#X obj 539 174 -;
#X obj 539 112 t b f b;
#X obj 597 84 r envOut;
#X obj 597 110 t b b f;
#X floatatom 558 194 5 0 0 0 - - -;
#X obj 379 36 tgl 15 0 empty empty empty 17 7 0 10 -262144 -1 -1 0
1;
#X floatatom 420 39 5 0 0 0 - - -;
#X obj 457 212 makenote 100 500;
#X obj 331 76 metro 1000;
#X msg 862 70 \; har 3.14 \; modIn 200 \; envIn 5 \; envOut 20 \;;
#X msg 959 69 \; har 1.333 \; modIn 1000 \; envIn 5 \; envOut 20 \;
;
#X msg 1061 69 \; har 6.66 \; modIn 400 \; envIn 5 \; envOut 20 \;
;
#X obj 714 34 loadbang;
#X msg 714 70 \; dur 100 har 0.777 \; modIn 600 \; envIn 5 \; envOut
20 \;;
#X obj 431 621 outlet~;
#X obj 432 398 add_voice;
#X obj 832 504 add_voice;
#X obj 457 421 add_voice;
#X obj 477 447 add_voice;
#X obj 496 471 add_voice;
#X obj 512 496 add_voice;
#X obj 531 513 add_voice;
#X obj 546 535 add_voice;
#X obj 564 556 add_voice;
#X obj 1007 230 r har;
#X obj 1001 269 r modIn;
#X obj 327 316 add_voice;
#X obj 331 281 pack 0 0;
#X obj 333 142 delay 500;
#X msg 251 217 60 100;
#X msg 326 214 0 100;
#X connect 0 0 1 0;
#X connect 0 1 1 1;
#X connect 0 2 1 2;
#X connect 1 0 2 0;
#X connect 2 0 35 0;
#X connect 2 1 37 0;
#X connect 2 2 38 0;
#X connect 2 3 39 0;
#X connect 2 4 40 0;
#X connect 2 5 41 0;
#X connect 2 6 42 0;
#X connect 2 7 43 0;
#X connect 3 0 11 0;
#X connect 4 0 27 0;
#X connect 5 0 21 0;
#X connect 6 0 27 1;
#X connect 9 0 7 0;
#X connect 10 0 8 0;
#X connect 11 0 27 0;
#X connect 12 0 15 0;
#X connect 14 0 13 0;
#X connect 16 0 17 0;
#X connect 18 0 20 0;
#X connect 19 0 20 1;
#X connect 20 0 24 0;
#X connect 20 0 27 2;
#X connect 21 0 18 0;
#X connect 21 1 18 1;
#X connect 21 2 19 0;
#X connect 22 0 23 0;
#X connect 23 0 18 0;
#X connect 23 1 19 0;
#X connect 23 2 19 1;
#X connect 25 0 28 0;
#X connect 26 0 28 1;
#X connect 27 0 0 0;
#X connect 27 0 47 0;
#X connect 27 1 0 1;
#X connect 27 1 47 1;
#X connect 28 0 11 0;
#X connect 28 0 49 0;
#X connect 28 0 48 0;
#X connect 32 0 33 0;
#X connect 32 0 25 0;
#X connect 35 0 34 0;
#X connect 37 0 34 0;
#X connect 38 0 34 0;
#X connect 39 0 34 0;
#X connect 40 0 34 0;
#X connect 41 0 34 0;
#X connect 42 0 34 0;
#X connect 43 0 34 0;
#X connect 46 0 34 0;
#X connect 47 0 46 0;
#X connect 48 0 50 0;
#X connect 49 0 46 0;
#X connect 50 0 46 0;
