#N canvas 0 0 1362 696 10;
#X obj 242 359 osc~;
#X floatatom 258 392 5 0 0 0 - - -;
#X obj 243 431 *~;
#X obj 228 466 +~;
#X obj 228 515 osc~;
#X text 617 437 multiply the modulating signal by the amount of modulation
we want;
#X text 615 346 [osc~] is the "modulator" oscillator. it determines
how quickly the frequency of the carrier oscillator changes \, and
by how much;
#X text 617 185 [mtof~] creates the "carrier" audio signal which will
be modulated;
#X floatatom 229 184 5 0 0 0 - - -;
#X obj 292 227 sig~;
#X obj 242 330 *~;
#X obj 229 84 inlet;
#X obj 228 633 outlet~;
#X obj 292 85 r har;
#X floatatom 292 185 5 0 0 0 - - -;
#X obj 285 370 r modIn;
#X obj 229 138 unpack 0 0;
#X obj 286 508 * 0.00787;
#X obj 284 532 pack 0 500;
#X obj 284 554 line~;
#X obj 385 480 r envIn;
#X obj 441 484 r envOut;
#X obj 286 329 sel 0;
#X obj 358 505 float;
#X text 616 506 [osc~] is the "carrier" oscillator \, whose frequency
is changed by the "modulator".;
#X obj 414 506 float;
#X obj 313 457 t f b;
#X obj 229 215 mtof;
#X obj 229 250 sig~;
#X obj 229 580 *~;
#X obj 286 424 t b b;
#X msg 286 484 0;
#X connect 0 0 2 0;
#X connect 1 0 2 1;
#X connect 2 0 3 1;
#X connect 3 0 4 0;
#X connect 4 0 29 0;
#X connect 8 0 27 0;
#X connect 9 0 10 1;
#X connect 10 0 0 0;
#X connect 11 0 16 0;
#X connect 13 0 14 0;
#X connect 14 0 9 0;
#X connect 15 0 1 0;
#X connect 16 0 8 0;
#X connect 16 1 22 0;
#X connect 17 0 18 0;
#X connect 18 0 19 0;
#X connect 19 0 29 1;
#X connect 20 0 23 1;
#X connect 21 0 25 1;
#X connect 22 0 30 0;
#X connect 22 1 26 0;
#X connect 23 0 18 1;
#X connect 25 0 18 1;
#X connect 26 0 17 0;
#X connect 26 1 23 0;
#X connect 27 0 28 0;
#X connect 28 0 3 0;
#X connect 28 0 10 0;
#X connect 29 0 12 0;
#X connect 30 0 31 0;
#X connect 30 1 25 0;
#X connect 31 0 17 0;
