#N canvas -8 -8 1366 696 10;
#X obj 45 111 dac~;
#X floatatom 116 41 5 0 0 0 - - -;
#X obj 46 62 *~ 0.5;
#N canvas 0 0 1362 696 fm_synth0 0;
#X obj 490 282 poly 8;
#X obj 476 322 pack 0 0 0;
#X obj 460 372 route 1 2 3 4 5 6 7 8;
#X msg 432 184 60;
#X obj 696 248 s har;
#X obj 745 249 s modIn;
#X floatatom 698 220 5 0 0 0 - - -;
#X floatatom 745 220 5 0 0 0 - - -;
#X floatatom 460 174 5 0 0 0 - - -;
#X floatatom 808 220 5 0 0 0 - - -;
#X obj 642 248 s dur;
#X floatatom 642 218 5 0 0 0 - - -;
#X obj 808 249 s envIn;
#X floatatom 864 220 5 0 0 0 - - -;
#X obj 864 249 s envOut;
#X obj 549 161 float;
#X obj 589 161 float;
#X obj 549 184 -;
#X obj 549 122 t b f b;
#X obj 607 120 t b b f;
#X floatatom 568 204 5 0 0 0 - - -;
#X obj 389 46 tgl 15 0 empty empty empty 17 7 0 10 -262144 -1 -1 0
1;
#X floatatom 430 49 5 0 0 0 - - -;
#X obj 467 222 makenote 100 500;
#X obj 341 86 metro 1000;
#X msg 872 80 \; har 3.14 \; modIn 200 \; envIn 5 \; envOut 20 \;;
#X msg 969 79 \; har 1.333 \; modIn 1000 \; envIn 5 \; envOut 20 \;
;
#X msg 1071 79 \; har 6.66 \; modIn 400 \; envIn 5 \; envOut 20 \;
;
#X obj 724 44 loadbang;
#X obj 441 631 outlet~;
#N canvas 299 197 286 437 fm_voice 0;
#X obj 61 311 osc~;
#X floatatom 77 344 5 0 0 0 - - -;
#X obj 62 383 *~;
#X obj 47 418 +~;
#X obj 47 467 osc~;
#X text 436 389 multiply the modulating signal by the amount of modulation
we want;
#X text 434 298 [osc~] is the "modulator" oscillator. it determines
how quickly the frequency of the carrier oscillator changes \, and
by how much;
#X text 436 137 [mtof~] creates the "carrier" audio signal which will
be modulated;
#X floatatom 48 136 5 0 0 0 - - -;
#X obj 111 179 sig~;
#X obj 61 282 *~;
#X obj 48 36 inlet;
#X obj 47 585 outlet~;
#X floatatom 111 137 5 0 0 0 - - -;
#X obj 48 90 unpack 0 0;
#X obj 105 460 * 0.00787;
#X obj 103 484 pack 0 500;
#X obj 103 506 line~;
#X obj 105 281 sel 0;
#X obj 177 457 float;
#X text 435 458 [osc~] is the "carrier" oscillator \, whose frequency
is changed by the "modulator".;
#X obj 233 458 float;
#X obj 132 409 t f b;
#X obj 48 167 mtof;
#X obj 48 202 sig~;
#X obj 48 532 *~;
#X obj 105 376 t b b;
#X msg 105 436 0;
#X obj 111 37 r har0;
#X obj 104 322 r modIn0;
#X obj 204 432 r envIn0;
#X obj 260 436 r envOut0;
#X connect 0 0 2 0;
#X connect 1 0 2 1;
#X connect 2 0 3 1;
#X connect 3 0 4 0;
#X connect 4 0 25 0;
#X connect 8 0 23 0;
#X connect 9 0 10 1;
#X connect 10 0 0 0;
#X connect 11 0 14 0;
#X connect 13 0 9 0;
#X connect 14 0 8 0;
#X connect 14 1 18 0;
#X connect 15 0 16 0;
#X connect 16 0 17 0;
#X connect 17 0 25 1;
#X connect 18 0 26 0;
#X connect 18 1 22 0;
#X connect 19 0 16 1;
#X connect 21 0 16 1;
#X connect 22 0 15 0;
#X connect 22 1 19 0;
#X connect 23 0 24 0;
#X connect 24 0 3 0;
#X connect 24 0 10 0;
#X connect 25 0 12 0;
#X connect 26 0 27 0;
#X connect 26 1 21 0;
#X connect 27 0 15 0;
#X connect 28 0 13 0;
#X connect 29 0 1 0;
#X connect 30 0 19 1;
#X connect 31 0 21 1;
#X restore 430 402 pd fm_voice;
#N canvas 641 402 450 300 fm_voice 0;
#X obj 53 301 osc~;
#X floatatom 69 334 5 0 0 0 - - -;
#X obj 54 373 *~;
#X obj 39 408 +~;
#X obj 39 457 osc~;
#X text 428 379 multiply the modulating signal by the amount of modulation
we want;
#X text 426 288 [osc~] is the "modulator" oscillator. it determines
how quickly the frequency of the carrier oscillator changes \, and
by how much;
#X text 428 127 [mtof~] creates the "carrier" audio signal which will
be modulated;
#X floatatom 40 126 5 0 0 0 - - -;
#X obj 103 169 sig~;
#X obj 53 272 *~;
#X obj 40 26 inlet;
#X obj 39 575 outlet~;
#X floatatom 103 127 5 0 0 0 - - -;
#X obj 40 80 unpack 0 0;
#X obj 97 450 * 0.00787;
#X obj 95 474 pack 0 500;
#X obj 95 496 line~;
#X obj 97 271 sel 0;
#X obj 169 447 float;
#X text 427 448 [osc~] is the "carrier" oscillator \, whose frequency
is changed by the "modulator".;
#X obj 225 448 float;
#X obj 124 399 t f b;
#X obj 40 157 mtof;
#X obj 40 192 sig~;
#X obj 40 522 *~;
#X obj 97 366 t b b;
#X msg 97 426 0;
#X obj 103 27 r har0;
#X obj 96 312 r modIn0;
#X obj 196 422 r envIn0;
#X obj 252 426 r envOut0;
#X connect 0 0 2 0;
#X connect 1 0 2 1;
#X connect 2 0 3 1;
#X connect 3 0 4 0;
#X connect 4 0 25 0;
#X connect 8 0 23 0;
#X connect 9 0 10 1;
#X connect 10 0 0 0;
#X connect 11 0 14 0;
#X connect 13 0 9 0;
#X connect 14 0 8 0;
#X connect 14 1 18 0;
#X connect 15 0 16 0;
#X connect 16 0 17 0;
#X connect 17 0 25 1;
#X connect 18 0 26 0;
#X connect 18 1 22 0;
#X connect 19 0 16 1;
#X connect 21 0 16 1;
#X connect 22 0 15 0;
#X connect 22 1 19 0;
#X connect 23 0 24 0;
#X connect 24 0 3 0;
#X connect 24 0 10 0;
#X connect 25 0 12 0;
#X connect 26 0 27 0;
#X connect 26 1 21 0;
#X connect 27 0 15 0;
#X connect 28 0 13 0;
#X connect 29 0 1 0;
#X connect 30 0 19 1;
#X connect 31 0 21 1;
#X restore 441 425 pd fm_voice;
#N canvas 584 221 441 517 fm_voice 0;
#X obj 106 321 osc~;
#X floatatom 122 354 5 0 0 0 - - -;
#X obj 107 393 *~;
#X obj 92 428 +~;
#X obj 92 477 osc~;
#X text 481 399 multiply the modulating signal by the amount of modulation
we want;
#X text 479 308 [osc~] is the "modulator" oscillator. it determines
how quickly the frequency of the carrier oscillator changes \, and
by how much;
#X text 481 147 [mtof~] creates the "carrier" audio signal which will
be modulated;
#X floatatom 93 146 5 0 0 0 - - -;
#X obj 156 189 sig~;
#X obj 106 292 *~;
#X obj 93 46 inlet;
#X obj 92 595 outlet~;
#X floatatom 156 147 5 0 0 0 - - -;
#X obj 93 100 unpack 0 0;
#X obj 150 470 * 0.00787;
#X obj 148 494 pack 0 500;
#X obj 148 516 line~;
#X obj 150 291 sel 0;
#X obj 222 467 float;
#X text 480 468 [osc~] is the "carrier" oscillator \, whose frequency
is changed by the "modulator".;
#X obj 278 468 float;
#X obj 177 419 t f b;
#X obj 93 177 mtof;
#X obj 93 212 sig~;
#X obj 93 542 *~;
#X obj 150 386 t b b;
#X msg 150 446 0;
#X obj 156 47 r har0;
#X obj 149 332 r modIn0;
#X obj 249 442 r envIn0;
#X obj 305 446 r envOut0;
#X connect 0 0 2 0;
#X connect 1 0 2 1;
#X connect 2 0 3 1;
#X connect 3 0 4 0;
#X connect 4 0 25 0;
#X connect 8 0 23 0;
#X connect 9 0 10 1;
#X connect 10 0 0 0;
#X connect 11 0 14 0;
#X connect 13 0 9 0;
#X connect 14 0 8 0;
#X connect 14 1 18 0;
#X connect 15 0 16 0;
#X connect 16 0 17 0;
#X connect 17 0 25 1;
#X connect 18 0 26 0;
#X connect 18 1 22 0;
#X connect 19 0 16 1;
#X connect 21 0 16 1;
#X connect 22 0 15 0;
#X connect 22 1 19 0;
#X connect 23 0 24 0;
#X connect 24 0 3 0;
#X connect 24 0 10 0;
#X connect 25 0 12 0;
#X connect 26 0 27 0;
#X connect 26 1 21 0;
#X connect 27 0 15 0;
#X connect 28 0 13 0;
#X connect 29 0 1 0;
#X connect 30 0 19 1;
#X connect 31 0 21 1;
#X restore 451 452 pd fm_voice;
#N canvas 641 402 450 300 fm_voice 0;
#X obj 77 322 osc~;
#X floatatom 93 355 5 0 0 0 - - -;
#X obj 78 394 *~;
#X obj 63 429 +~;
#X obj 63 478 osc~;
#X text 452 400 multiply the modulating signal by the amount of modulation
we want;
#X text 450 309 [osc~] is the "modulator" oscillator. it determines
how quickly the frequency of the carrier oscillator changes \, and
by how much;
#X text 452 148 [mtof~] creates the "carrier" audio signal which will
be modulated;
#X floatatom 64 147 5 0 0 0 - - -;
#X obj 127 190 sig~;
#X obj 77 293 *~;
#X obj 64 47 inlet;
#X obj 63 596 outlet~;
#X floatatom 127 148 5 0 0 0 - - -;
#X obj 64 101 unpack 0 0;
#X obj 121 471 * 0.00787;
#X obj 119 495 pack 0 500;
#X obj 119 517 line~;
#X obj 121 292 sel 0;
#X obj 193 468 float;
#X text 451 469 [osc~] is the "carrier" oscillator \, whose frequency
is changed by the "modulator".;
#X obj 249 469 float;
#X obj 148 420 t f b;
#X obj 64 178 mtof;
#X obj 64 213 sig~;
#X obj 64 543 *~;
#X obj 121 387 t b b;
#X msg 121 447 0;
#X obj 127 48 r har0;
#X obj 120 333 r modIn0;
#X obj 220 443 r envIn0;
#X obj 276 447 r envOut0;
#X connect 0 0 2 0;
#X connect 1 0 2 1;
#X connect 2 0 3 1;
#X connect 3 0 4 0;
#X connect 4 0 25 0;
#X connect 8 0 23 0;
#X connect 9 0 10 1;
#X connect 10 0 0 0;
#X connect 11 0 14 0;
#X connect 13 0 9 0;
#X connect 14 0 8 0;
#X connect 14 1 18 0;
#X connect 15 0 16 0;
#X connect 16 0 17 0;
#X connect 17 0 25 1;
#X connect 18 0 26 0;
#X connect 18 1 22 0;
#X connect 19 0 16 1;
#X connect 21 0 16 1;
#X connect 22 0 15 0;
#X connect 22 1 19 0;
#X connect 23 0 24 0;
#X connect 24 0 3 0;
#X connect 24 0 10 0;
#X connect 25 0 12 0;
#X connect 26 0 27 0;
#X connect 26 1 21 0;
#X connect 27 0 15 0;
#X connect 28 0 13 0;
#X connect 29 0 1 0;
#X connect 30 0 19 1;
#X connect 31 0 21 1;
#X restore 461 478 pd fm_voice;
#N canvas 622 299 450 300 fm_voice 0;
#X obj 120 306 osc~;
#X floatatom 136 339 5 0 0 0 - - -;
#X obj 121 378 *~;
#X obj 106 413 +~;
#X obj 106 462 osc~;
#X text 495 384 multiply the modulating signal by the amount of modulation
we want;
#X text 493 293 [osc~] is the "modulator" oscillator. it determines
how quickly the frequency of the carrier oscillator changes \, and
by how much;
#X text 495 132 [mtof~] creates the "carrier" audio signal which will
be modulated;
#X floatatom 107 131 5 0 0 0 - - -;
#X obj 170 174 sig~;
#X obj 120 277 *~;
#X obj 107 31 inlet;
#X obj 106 580 outlet~;
#X floatatom 170 132 5 0 0 0 - - -;
#X obj 107 85 unpack 0 0;
#X obj 164 455 * 0.00787;
#X obj 162 479 pack 0 500;
#X obj 162 501 line~;
#X obj 164 276 sel 0;
#X obj 236 452 float;
#X text 494 453 [osc~] is the "carrier" oscillator \, whose frequency
is changed by the "modulator".;
#X obj 292 453 float;
#X obj 191 404 t f b;
#X obj 107 162 mtof;
#X obj 107 197 sig~;
#X obj 107 527 *~;
#X obj 164 371 t b b;
#X msg 164 431 0;
#X obj 170 32 r har0;
#X obj 163 317 r modIn0;
#X obj 263 427 r envIn0;
#X obj 319 431 r envOut0;
#X connect 0 0 2 0;
#X connect 1 0 2 1;
#X connect 2 0 3 1;
#X connect 3 0 4 0;
#X connect 4 0 25 0;
#X connect 8 0 23 0;
#X connect 9 0 10 1;
#X connect 10 0 0 0;
#X connect 11 0 14 0;
#X connect 13 0 9 0;
#X connect 14 0 8 0;
#X connect 14 1 18 0;
#X connect 15 0 16 0;
#X connect 16 0 17 0;
#X connect 17 0 25 1;
#X connect 18 0 26 0;
#X connect 18 1 22 0;
#X connect 19 0 16 1;
#X connect 21 0 16 1;
#X connect 22 0 15 0;
#X connect 22 1 19 0;
#X connect 23 0 24 0;
#X connect 24 0 3 0;
#X connect 24 0 10 0;
#X connect 25 0 12 0;
#X connect 26 0 27 0;
#X connect 26 1 21 0;
#X connect 27 0 15 0;
#X connect 28 0 13 0;
#X connect 29 0 1 0;
#X connect 30 0 19 1;
#X connect 31 0 21 1;
#X restore 471 504 pd fm_voice;
#N canvas 641 402 450 300 fm_voice 0;
#X obj 109 330 osc~;
#X floatatom 125 363 5 0 0 0 - - -;
#X obj 110 402 *~;
#X obj 95 437 +~;
#X obj 95 486 osc~;
#X text 484 408 multiply the modulating signal by the amount of modulation
we want;
#X text 482 317 [osc~] is the "modulator" oscillator. it determines
how quickly the frequency of the carrier oscillator changes \, and
by how much;
#X text 484 156 [mtof~] creates the "carrier" audio signal which will
be modulated;
#X floatatom 96 155 5 0 0 0 - - -;
#X obj 159 198 sig~;
#X obj 109 301 *~;
#X obj 96 55 inlet;
#X obj 95 604 outlet~;
#X floatatom 159 156 5 0 0 0 - - -;
#X obj 96 109 unpack 0 0;
#X obj 153 479 * 0.00787;
#X obj 151 503 pack 0 500;
#X obj 151 525 line~;
#X obj 153 300 sel 0;
#X obj 225 476 float;
#X text 483 477 [osc~] is the "carrier" oscillator \, whose frequency
is changed by the "modulator".;
#X obj 281 477 float;
#X obj 180 428 t f b;
#X obj 96 186 mtof;
#X obj 96 221 sig~;
#X obj 96 551 *~;
#X obj 153 395 t b b;
#X msg 153 455 0;
#X obj 159 56 r har0;
#X obj 152 341 r modIn0;
#X obj 252 451 r envIn0;
#X obj 308 455 r envOut0;
#X connect 0 0 2 0;
#X connect 1 0 2 1;
#X connect 2 0 3 1;
#X connect 3 0 4 0;
#X connect 4 0 25 0;
#X connect 8 0 23 0;
#X connect 9 0 10 1;
#X connect 10 0 0 0;
#X connect 11 0 14 0;
#X connect 13 0 9 0;
#X connect 14 0 8 0;
#X connect 14 1 18 0;
#X connect 15 0 16 0;
#X connect 16 0 17 0;
#X connect 17 0 25 1;
#X connect 18 0 26 0;
#X connect 18 1 22 0;
#X connect 19 0 16 1;
#X connect 21 0 16 1;
#X connect 22 0 15 0;
#X connect 22 1 19 0;
#X connect 23 0 24 0;
#X connect 24 0 3 0;
#X connect 24 0 10 0;
#X connect 25 0 12 0;
#X connect 26 0 27 0;
#X connect 26 1 21 0;
#X connect 27 0 15 0;
#X connect 28 0 13 0;
#X connect 29 0 1 0;
#X connect 30 0 19 1;
#X connect 31 0 21 1;
#X restore 481 529 pd fm_voice;
#N canvas 641 402 450 300 fm_voice 0;
#X obj 108 318 osc~;
#X floatatom 124 351 5 0 0 0 - - -;
#X obj 109 390 *~;
#X obj 94 425 +~;
#X obj 94 474 osc~;
#X text 483 396 multiply the modulating signal by the amount of modulation
we want;
#X text 481 305 [osc~] is the "modulator" oscillator. it determines
how quickly the frequency of the carrier oscillator changes \, and
by how much;
#X text 483 144 [mtof~] creates the "carrier" audio signal which will
be modulated;
#X floatatom 95 143 5 0 0 0 - - -;
#X obj 158 186 sig~;
#X obj 108 289 *~;
#X obj 95 43 inlet;
#X obj 94 592 outlet~;
#X floatatom 158 144 5 0 0 0 - - -;
#X obj 95 97 unpack 0 0;
#X obj 152 467 * 0.00787;
#X obj 150 491 pack 0 500;
#X obj 150 513 line~;
#X obj 152 288 sel 0;
#X obj 224 464 float;
#X text 482 465 [osc~] is the "carrier" oscillator \, whose frequency
is changed by the "modulator".;
#X obj 280 465 float;
#X obj 179 416 t f b;
#X obj 95 174 mtof;
#X obj 95 209 sig~;
#X obj 95 539 *~;
#X obj 152 383 t b b;
#X msg 152 443 0;
#X obj 158 44 r har0;
#X obj 151 329 r modIn0;
#X obj 251 439 r envIn0;
#X obj 307 443 r envOut0;
#X connect 0 0 2 0;
#X connect 1 0 2 1;
#X connect 2 0 3 1;
#X connect 3 0 4 0;
#X connect 4 0 25 0;
#X connect 8 0 23 0;
#X connect 9 0 10 1;
#X connect 10 0 0 0;
#X connect 11 0 14 0;
#X connect 13 0 9 0;
#X connect 14 0 8 0;
#X connect 14 1 18 0;
#X connect 15 0 16 0;
#X connect 16 0 17 0;
#X connect 17 0 25 1;
#X connect 18 0 26 0;
#X connect 18 1 22 0;
#X connect 19 0 16 1;
#X connect 21 0 16 1;
#X connect 22 0 15 0;
#X connect 22 1 19 0;
#X connect 23 0 24 0;
#X connect 24 0 3 0;
#X connect 24 0 10 0;
#X connect 25 0 12 0;
#X connect 26 0 27 0;
#X connect 26 1 21 0;
#X connect 27 0 15 0;
#X connect 28 0 13 0;
#X connect 29 0 1 0;
#X connect 30 0 19 1;
#X connect 31 0 21 1;
#X restore 491 555 pd fm_voice;
#N canvas 641 402 450 300 fm_voice 0;
#X obj 65 298 osc~;
#X floatatom 81 331 5 0 0 0 - - -;
#X obj 66 370 *~;
#X obj 51 405 +~;
#X obj 51 454 osc~;
#X text 440 376 multiply the modulating signal by the amount of modulation
we want;
#X text 438 285 [osc~] is the "modulator" oscillator. it determines
how quickly the frequency of the carrier oscillator changes \, and
by how much;
#X text 440 124 [mtof~] creates the "carrier" audio signal which will
be modulated;
#X floatatom 52 123 5 0 0 0 - - -;
#X obj 115 166 sig~;
#X obj 65 269 *~;
#X obj 52 23 inlet;
#X obj 51 572 outlet~;
#X floatatom 115 124 5 0 0 0 - - -;
#X obj 52 77 unpack 0 0;
#X obj 109 447 * 0.00787;
#X obj 107 471 pack 0 500;
#X obj 107 493 line~;
#X obj 109 268 sel 0;
#X obj 181 444 float;
#X text 439 445 [osc~] is the "carrier" oscillator \, whose frequency
is changed by the "modulator".;
#X obj 237 445 float;
#X obj 136 396 t f b;
#X obj 52 154 mtof;
#X obj 52 189 sig~;
#X obj 52 519 *~;
#X obj 109 363 t b b;
#X msg 109 423 0;
#X obj 115 24 r har0;
#X obj 108 309 r modIn0;
#X obj 208 419 r envIn0;
#X obj 264 423 r envOut0;
#X connect 0 0 2 0;
#X connect 1 0 2 1;
#X connect 2 0 3 1;
#X connect 3 0 4 0;
#X connect 4 0 25 0;
#X connect 8 0 23 0;
#X connect 9 0 10 1;
#X connect 10 0 0 0;
#X connect 11 0 14 0;
#X connect 13 0 9 0;
#X connect 14 0 8 0;
#X connect 14 1 18 0;
#X connect 15 0 16 0;
#X connect 16 0 17 0;
#X connect 17 0 25 1;
#X connect 18 0 26 0;
#X connect 18 1 22 0;
#X connect 19 0 16 1;
#X connect 21 0 16 1;
#X connect 22 0 15 0;
#X connect 22 1 19 0;
#X connect 23 0 24 0;
#X connect 24 0 3 0;
#X connect 24 0 10 0;
#X connect 25 0 12 0;
#X connect 26 0 27 0;
#X connect 26 1 21 0;
#X connect 27 0 15 0;
#X connect 28 0 13 0;
#X connect 29 0 1 0;
#X connect 30 0 19 1;
#X connect 31 0 21 1;
#X restore 501 580 pd fm_voice;
#X msg 724 80 \; dur0 100 \; har0 0.777 \; modIn0 600 \; envIn0 5 \;
envOut0 20 \;;
#X obj 549 94 r dur0;
#X obj 607 94 r envOut0;
#X obj 500 190 r vel0;
#X obj 453 108 r note0;
#X connect 0 0 1 0;
#X connect 0 1 1 1;
#X connect 0 2 1 2;
#X connect 1 0 2 0;
#X connect 2 0 30 0;
#X connect 2 1 31 0;
#X connect 2 2 32 0;
#X connect 2 3 33 0;
#X connect 2 4 34 0;
#X connect 2 5 35 0;
#X connect 2 6 36 0;
#X connect 2 7 37 0;
#X connect 3 0 23 0;
#X connect 6 0 4 0;
#X connect 7 0 5 0;
#X connect 8 0 23 0;
#X connect 9 0 12 0;
#X connect 11 0 10 0;
#X connect 13 0 14 0;
#X connect 15 0 17 0;
#X connect 16 0 17 1;
#X connect 17 0 20 0;
#X connect 17 0 23 2;
#X connect 18 0 15 0;
#X connect 18 1 15 1;
#X connect 18 2 16 0;
#X connect 19 0 15 0;
#X connect 19 1 16 0;
#X connect 19 2 16 1;
#X connect 21 0 24 0;
#X connect 22 0 24 1;
#X connect 23 0 0 0;
#X connect 23 1 0 1;
#X connect 24 0 8 0;
#X connect 28 0 38 0;
#X connect 30 0 29 0;
#X connect 31 0 29 0;
#X connect 32 0 29 0;
#X connect 33 0 29 0;
#X connect 34 0 29 0;
#X connect 35 0 29 0;
#X connect 36 0 29 0;
#X connect 37 0 29 0;
#X connect 39 0 18 0;
#X connect 40 0 19 0;
#X connect 41 0 23 1;
#X connect 42 0 8 0;
#X restore 45 -41 pd fm_synth0;
#N canvas 0 0 1362 696 fm_synth1 0;
#X obj 490 282 poly 8;
#X obj 476 322 pack 0 0 0;
#X obj 460 372 route 1 2 3 4 5 6 7 8;
#X msg 432 184 60;
#X obj 696 248 s har;
#X obj 745 249 s modIn;
#X floatatom 698 220 5 0 0 0 - - -;
#X floatatom 745 220 5 0 0 0 - - -;
#X floatatom 460 174 5 0 0 0 - - -;
#X floatatom 808 220 5 0 0 0 - - -;
#X obj 642 248 s dur;
#X floatatom 642 218 5 0 0 0 - - -;
#X obj 808 249 s envIn;
#X floatatom 864 220 5 0 0 0 - - -;
#X obj 864 249 s envOut;
#X obj 549 161 float;
#X obj 589 161 float;
#X obj 549 184 -;
#X obj 549 122 t b f b;
#X obj 607 120 t b b f;
#X floatatom 568 204 5 0 0 0 - - -;
#X obj 389 46 tgl 15 0 empty empty empty 17 7 0 10 -262144 -1 -1 0
1;
#X floatatom 430 49 5 0 0 0 - - -;
#X obj 467 222 makenote 100 500;
#X obj 341 86 metro 1000;
#X msg 969 79 \; har 1.333 \; modIn 1000 \; envIn 5 \; envOut 20 \;
;
#X msg 1071 79 \; har 6.66 \; modIn 400 \; envIn 5 \; envOut 20 \;
;
#X obj 724 44 loadbang;
#X obj 441 631 outlet~;
#N canvas -8 -8 1366 696 fm_voice 0;
#X obj 61 311 osc~;
#X floatatom 77 344 5 0 0 0 - - -;
#X obj 62 383 *~;
#X obj 47 418 +~;
#X obj 47 467 osc~;
#X text 436 389 multiply the modulating signal by the amount of modulation
we want;
#X text 434 298 [osc~] is the "modulator" oscillator. it determines
how quickly the frequency of the carrier oscillator changes \, and
by how much;
#X text 436 137 [mtof~] creates the "carrier" audio signal which will
be modulated;
#X floatatom 48 136 5 0 0 0 - - -;
#X obj 111 179 sig~;
#X obj 61 282 *~;
#X obj 48 36 inlet;
#X obj 47 585 outlet~;
#X floatatom 111 137 5 0 0 0 - - -;
#X obj 48 90 unpack 0 0;
#X obj 105 460 * 0.00787;
#X obj 103 484 pack 0 500;
#X obj 103 506 line~;
#X obj 105 281 sel 0;
#X obj 177 457 float;
#X text 435 458 [osc~] is the "carrier" oscillator \, whose frequency
is changed by the "modulator".;
#X obj 233 458 float;
#X obj 132 409 t f b;
#X obj 48 167 mtof;
#X obj 48 202 sig~;
#X obj 48 532 *~;
#X obj 105 376 t b b;
#X msg 105 436 0;
#X obj 111 37 r har1;
#X obj 104 322 r modIn1;
#X obj 204 432 r envIn1;
#X obj 260 436 r envOut1;
#X connect 0 0 2 0;
#X connect 1 0 2 1;
#X connect 2 0 3 1;
#X connect 3 0 4 0;
#X connect 4 0 25 0;
#X connect 8 0 23 0;
#X connect 9 0 10 1;
#X connect 10 0 0 0;
#X connect 11 0 14 0;
#X connect 13 0 9 0;
#X connect 14 0 8 0;
#X connect 14 1 18 0;
#X connect 15 0 16 0;
#X connect 16 0 17 0;
#X connect 17 0 25 1;
#X connect 18 0 26 0;
#X connect 18 1 22 0;
#X connect 19 0 16 1;
#X connect 21 0 16 1;
#X connect 22 0 15 0;
#X connect 22 1 19 0;
#X connect 23 0 24 0;
#X connect 24 0 3 0;
#X connect 24 0 10 0;
#X connect 25 0 12 0;
#X connect 26 0 27 0;
#X connect 26 1 21 0;
#X connect 27 0 15 0;
#X connect 28 0 13 0;
#X connect 29 0 1 0;
#X connect 30 0 19 1;
#X connect 31 0 21 1;
#X restore 430 402 pd fm_voice;
#X obj 549 94 r dur1;
#X obj 607 94 r envOut1;
#X obj 453 108 r note1;
#X obj 500 190 r vel1;
#N canvas 0 0 1366 696 fm_voice 0;
#X obj 61 311 osc~;
#X floatatom 77 344 5 0 0 0 - - -;
#X obj 62 383 *~;
#X obj 47 418 +~;
#X obj 47 467 osc~;
#X text 436 389 multiply the modulating signal by the amount of modulation
we want;
#X text 434 298 [osc~] is the "modulator" oscillator. it determines
how quickly the frequency of the carrier oscillator changes \, and
by how much;
#X text 436 137 [mtof~] creates the "carrier" audio signal which will
be modulated;
#X floatatom 48 136 5 0 0 0 - - -;
#X obj 111 179 sig~;
#X obj 61 282 *~;
#X obj 48 36 inlet;
#X obj 47 585 outlet~;
#X floatatom 111 137 5 0 0 0 - - -;
#X obj 48 90 unpack 0 0;
#X obj 105 460 * 0.00787;
#X obj 103 484 pack 0 500;
#X obj 103 506 line~;
#X obj 105 281 sel 0;
#X obj 177 457 float;
#X text 435 458 [osc~] is the "carrier" oscillator \, whose frequency
is changed by the "modulator".;
#X obj 233 458 float;
#X obj 132 409 t f b;
#X obj 48 167 mtof;
#X obj 48 202 sig~;
#X obj 48 532 *~;
#X obj 105 376 t b b;
#X msg 105 436 0;
#X obj 111 37 r har1;
#X obj 104 322 r modIn1;
#X obj 204 432 r envIn1;
#X obj 260 436 r envOut1;
#X connect 0 0 2 0;
#X connect 1 0 2 1;
#X connect 2 0 3 1;
#X connect 3 0 4 0;
#X connect 4 0 25 0;
#X connect 8 0 23 0;
#X connect 9 0 10 1;
#X connect 10 0 0 0;
#X connect 11 0 14 0;
#X connect 13 0 9 0;
#X connect 14 0 8 0;
#X connect 14 1 18 0;
#X connect 15 0 16 0;
#X connect 16 0 17 0;
#X connect 17 0 25 1;
#X connect 18 0 26 0;
#X connect 18 1 22 0;
#X connect 19 0 16 1;
#X connect 21 0 16 1;
#X connect 22 0 15 0;
#X connect 22 1 19 0;
#X connect 23 0 24 0;
#X connect 24 0 3 0;
#X connect 24 0 10 0;
#X connect 25 0 12 0;
#X connect 26 0 27 0;
#X connect 26 1 21 0;
#X connect 27 0 15 0;
#X connect 28 0 13 0;
#X connect 29 0 1 0;
#X connect 30 0 19 1;
#X connect 31 0 21 1;
#X restore 445 427 pd fm_voice;
#N canvas 0 0 1366 696 fm_voice 0;
#X obj 61 311 osc~;
#X floatatom 77 344 5 0 0 0 - - -;
#X obj 62 383 *~;
#X obj 47 418 +~;
#X obj 47 467 osc~;
#X text 436 389 multiply the modulating signal by the amount of modulation
we want;
#X text 434 298 [osc~] is the "modulator" oscillator. it determines
how quickly the frequency of the carrier oscillator changes \, and
by how much;
#X text 436 137 [mtof~] creates the "carrier" audio signal which will
be modulated;
#X floatatom 48 136 5 0 0 0 - - -;
#X obj 111 179 sig~;
#X obj 61 282 *~;
#X obj 48 36 inlet;
#X obj 47 585 outlet~;
#X floatatom 111 137 5 0 0 0 - - -;
#X obj 48 90 unpack 0 0;
#X obj 105 460 * 0.00787;
#X obj 103 484 pack 0 500;
#X obj 103 506 line~;
#X obj 105 281 sel 0;
#X obj 177 457 float;
#X text 435 458 [osc~] is the "carrier" oscillator \, whose frequency
is changed by the "modulator".;
#X obj 233 458 float;
#X obj 132 409 t f b;
#X obj 48 167 mtof;
#X obj 48 202 sig~;
#X obj 48 532 *~;
#X obj 105 376 t b b;
#X msg 105 436 0;
#X obj 111 37 r har1;
#X obj 104 322 r modIn1;
#X obj 204 432 r envIn1;
#X obj 260 436 r envOut1;
#X connect 0 0 2 0;
#X connect 1 0 2 1;
#X connect 2 0 3 1;
#X connect 3 0 4 0;
#X connect 4 0 25 0;
#X connect 8 0 23 0;
#X connect 9 0 10 1;
#X connect 10 0 0 0;
#X connect 11 0 14 0;
#X connect 13 0 9 0;
#X connect 14 0 8 0;
#X connect 14 1 18 0;
#X connect 15 0 16 0;
#X connect 16 0 17 0;
#X connect 17 0 25 1;
#X connect 18 0 26 0;
#X connect 18 1 22 0;
#X connect 19 0 16 1;
#X connect 21 0 16 1;
#X connect 22 0 15 0;
#X connect 22 1 19 0;
#X connect 23 0 24 0;
#X connect 24 0 3 0;
#X connect 24 0 10 0;
#X connect 25 0 12 0;
#X connect 26 0 27 0;
#X connect 26 1 21 0;
#X connect 27 0 15 0;
#X connect 28 0 13 0;
#X connect 29 0 1 0;
#X connect 30 0 19 1;
#X connect 31 0 21 1;
#X restore 468 453 pd fm_voice;
#N canvas 0 0 1366 696 fm_voice 0;
#X obj 61 311 osc~;
#X floatatom 77 344 5 0 0 0 - - -;
#X obj 62 383 *~;
#X obj 47 418 +~;
#X obj 47 467 osc~;
#X text 436 389 multiply the modulating signal by the amount of modulation
we want;
#X text 434 298 [osc~] is the "modulator" oscillator. it determines
how quickly the frequency of the carrier oscillator changes \, and
by how much;
#X text 436 137 [mtof~] creates the "carrier" audio signal which will
be modulated;
#X floatatom 48 136 5 0 0 0 - - -;
#X obj 111 179 sig~;
#X obj 61 282 *~;
#X obj 48 36 inlet;
#X obj 47 585 outlet~;
#X floatatom 111 137 5 0 0 0 - - -;
#X obj 48 90 unpack 0 0;
#X obj 105 460 * 0.00787;
#X obj 103 484 pack 0 500;
#X obj 103 506 line~;
#X obj 105 281 sel 0;
#X obj 177 457 float;
#X text 435 458 [osc~] is the "carrier" oscillator \, whose frequency
is changed by the "modulator".;
#X obj 233 458 float;
#X obj 132 409 t f b;
#X obj 48 167 mtof;
#X obj 48 202 sig~;
#X obj 48 532 *~;
#X obj 105 376 t b b;
#X msg 105 436 0;
#X obj 111 37 r har1;
#X obj 104 322 r modIn1;
#X obj 204 432 r envIn1;
#X obj 260 436 r envOut1;
#X connect 0 0 2 0;
#X connect 1 0 2 1;
#X connect 2 0 3 1;
#X connect 3 0 4 0;
#X connect 4 0 25 0;
#X connect 8 0 23 0;
#X connect 9 0 10 1;
#X connect 10 0 0 0;
#X connect 11 0 14 0;
#X connect 13 0 9 0;
#X connect 14 0 8 0;
#X connect 14 1 18 0;
#X connect 15 0 16 0;
#X connect 16 0 17 0;
#X connect 17 0 25 1;
#X connect 18 0 26 0;
#X connect 18 1 22 0;
#X connect 19 0 16 1;
#X connect 21 0 16 1;
#X connect 22 0 15 0;
#X connect 22 1 19 0;
#X connect 23 0 24 0;
#X connect 24 0 3 0;
#X connect 24 0 10 0;
#X connect 25 0 12 0;
#X connect 26 0 27 0;
#X connect 26 1 21 0;
#X connect 27 0 15 0;
#X connect 28 0 13 0;
#X connect 29 0 1 0;
#X connect 30 0 19 1;
#X connect 31 0 21 1;
#X restore 488 480 pd fm_voice;
#N canvas 0 0 1366 696 fm_voice 0;
#X obj 61 311 osc~;
#X floatatom 77 344 5 0 0 0 - - -;
#X obj 62 383 *~;
#X obj 47 418 +~;
#X obj 47 467 osc~;
#X text 436 389 multiply the modulating signal by the amount of modulation
we want;
#X text 434 298 [osc~] is the "modulator" oscillator. it determines
how quickly the frequency of the carrier oscillator changes \, and
by how much;
#X text 436 137 [mtof~] creates the "carrier" audio signal which will
be modulated;
#X floatatom 48 136 5 0 0 0 - - -;
#X obj 111 179 sig~;
#X obj 61 282 *~;
#X obj 48 36 inlet;
#X obj 47 585 outlet~;
#X floatatom 111 137 5 0 0 0 - - -;
#X obj 48 90 unpack 0 0;
#X obj 105 460 * 0.00787;
#X obj 103 484 pack 0 500;
#X obj 103 506 line~;
#X obj 105 281 sel 0;
#X obj 177 457 float;
#X text 435 458 [osc~] is the "carrier" oscillator \, whose frequency
is changed by the "modulator".;
#X obj 233 458 float;
#X obj 132 409 t f b;
#X obj 48 167 mtof;
#X obj 48 202 sig~;
#X obj 48 532 *~;
#X obj 105 376 t b b;
#X msg 105 436 0;
#X obj 111 37 r har1;
#X obj 104 322 r modIn1;
#X obj 204 432 r envIn1;
#X obj 260 436 r envOut1;
#X connect 0 0 2 0;
#X connect 1 0 2 1;
#X connect 2 0 3 1;
#X connect 3 0 4 0;
#X connect 4 0 25 0;
#X connect 8 0 23 0;
#X connect 9 0 10 1;
#X connect 10 0 0 0;
#X connect 11 0 14 0;
#X connect 13 0 9 0;
#X connect 14 0 8 0;
#X connect 14 1 18 0;
#X connect 15 0 16 0;
#X connect 16 0 17 0;
#X connect 17 0 25 1;
#X connect 18 0 26 0;
#X connect 18 1 22 0;
#X connect 19 0 16 1;
#X connect 21 0 16 1;
#X connect 22 0 15 0;
#X connect 22 1 19 0;
#X connect 23 0 24 0;
#X connect 24 0 3 0;
#X connect 24 0 10 0;
#X connect 25 0 12 0;
#X connect 26 0 27 0;
#X connect 26 1 21 0;
#X connect 27 0 15 0;
#X connect 28 0 13 0;
#X connect 29 0 1 0;
#X connect 30 0 19 1;
#X connect 31 0 21 1;
#X restore 507 507 pd fm_voice;
#N canvas 0 0 1366 696 fm_voice 0;
#X obj 61 311 osc~;
#X floatatom 77 344 5 0 0 0 - - -;
#X obj 62 383 *~;
#X obj 47 418 +~;
#X obj 47 467 osc~;
#X text 436 389 multiply the modulating signal by the amount of modulation
we want;
#X text 434 298 [osc~] is the "modulator" oscillator. it determines
how quickly the frequency of the carrier oscillator changes \, and
by how much;
#X text 436 137 [mtof~] creates the "carrier" audio signal which will
be modulated;
#X floatatom 48 136 5 0 0 0 - - -;
#X obj 111 179 sig~;
#X obj 61 282 *~;
#X obj 48 36 inlet;
#X obj 47 585 outlet~;
#X floatatom 111 137 5 0 0 0 - - -;
#X obj 48 90 unpack 0 0;
#X obj 105 460 * 0.00787;
#X obj 103 484 pack 0 500;
#X obj 103 506 line~;
#X obj 105 281 sel 0;
#X obj 177 457 float;
#X text 435 458 [osc~] is the "carrier" oscillator \, whose frequency
is changed by the "modulator".;
#X obj 233 458 float;
#X obj 132 409 t f b;
#X obj 48 167 mtof;
#X obj 48 202 sig~;
#X obj 48 532 *~;
#X obj 105 376 t b b;
#X msg 105 436 0;
#X obj 111 37 r har1;
#X obj 104 322 r modIn1;
#X obj 204 432 r envIn1;
#X obj 260 436 r envOut1;
#X connect 0 0 2 0;
#X connect 1 0 2 1;
#X connect 2 0 3 1;
#X connect 3 0 4 0;
#X connect 4 0 25 0;
#X connect 8 0 23 0;
#X connect 9 0 10 1;
#X connect 10 0 0 0;
#X connect 11 0 14 0;
#X connect 13 0 9 0;
#X connect 14 0 8 0;
#X connect 14 1 18 0;
#X connect 15 0 16 0;
#X connect 16 0 17 0;
#X connect 17 0 25 1;
#X connect 18 0 26 0;
#X connect 18 1 22 0;
#X connect 19 0 16 1;
#X connect 21 0 16 1;
#X connect 22 0 15 0;
#X connect 22 1 19 0;
#X connect 23 0 24 0;
#X connect 24 0 3 0;
#X connect 24 0 10 0;
#X connect 25 0 12 0;
#X connect 26 0 27 0;
#X connect 26 1 21 0;
#X connect 27 0 15 0;
#X connect 28 0 13 0;
#X connect 29 0 1 0;
#X connect 30 0 19 1;
#X connect 31 0 21 1;
#X restore 531 533 pd fm_voice;
#N canvas 0 0 1366 696 fm_voice 0;
#X obj 61 311 osc~;
#X floatatom 77 344 5 0 0 0 - - -;
#X obj 62 383 *~;
#X obj 47 418 +~;
#X obj 47 467 osc~;
#X text 436 389 multiply the modulating signal by the amount of modulation
we want;
#X text 434 298 [osc~] is the "modulator" oscillator. it determines
how quickly the frequency of the carrier oscillator changes \, and
by how much;
#X text 436 137 [mtof~] creates the "carrier" audio signal which will
be modulated;
#X floatatom 48 136 5 0 0 0 - - -;
#X obj 111 179 sig~;
#X obj 61 282 *~;
#X obj 48 36 inlet;
#X obj 47 585 outlet~;
#X floatatom 111 137 5 0 0 0 - - -;
#X obj 48 90 unpack 0 0;
#X obj 105 460 * 0.00787;
#X obj 103 484 pack 0 500;
#X obj 103 506 line~;
#X obj 105 281 sel 0;
#X obj 177 457 float;
#X text 435 458 [osc~] is the "carrier" oscillator \, whose frequency
is changed by the "modulator".;
#X obj 233 458 float;
#X obj 132 409 t f b;
#X obj 48 167 mtof;
#X obj 48 202 sig~;
#X obj 48 532 *~;
#X obj 105 376 t b b;
#X msg 105 436 0;
#X obj 111 37 r har1;
#X obj 104 322 r modIn1;
#X obj 204 432 r envIn1;
#X obj 260 436 r envOut1;
#X connect 0 0 2 0;
#X connect 1 0 2 1;
#X connect 2 0 3 1;
#X connect 3 0 4 0;
#X connect 4 0 25 0;
#X connect 8 0 23 0;
#X connect 9 0 10 1;
#X connect 10 0 0 0;
#X connect 11 0 14 0;
#X connect 13 0 9 0;
#X connect 14 0 8 0;
#X connect 14 1 18 0;
#X connect 15 0 16 0;
#X connect 16 0 17 0;
#X connect 17 0 25 1;
#X connect 18 0 26 0;
#X connect 18 1 22 0;
#X connect 19 0 16 1;
#X connect 21 0 16 1;
#X connect 22 0 15 0;
#X connect 22 1 19 0;
#X connect 23 0 24 0;
#X connect 24 0 3 0;
#X connect 24 0 10 0;
#X connect 25 0 12 0;
#X connect 26 0 27 0;
#X connect 26 1 21 0;
#X connect 27 0 15 0;
#X connect 28 0 13 0;
#X connect 29 0 1 0;
#X connect 30 0 19 1;
#X connect 31 0 21 1;
#X restore 545 557 pd fm_voice;
#N canvas 0 0 1366 696 fm_voice 0;
#X obj 61 311 osc~;
#X floatatom 77 344 5 0 0 0 - - -;
#X obj 62 383 *~;
#X obj 47 418 +~;
#X obj 47 467 osc~;
#X text 436 389 multiply the modulating signal by the amount of modulation
we want;
#X text 434 298 [osc~] is the "modulator" oscillator. it determines
how quickly the frequency of the carrier oscillator changes \, and
by how much;
#X text 436 137 [mtof~] creates the "carrier" audio signal which will
be modulated;
#X floatatom 48 136 5 0 0 0 - - -;
#X obj 111 179 sig~;
#X obj 61 282 *~;
#X obj 48 36 inlet;
#X obj 47 585 outlet~;
#X floatatom 111 137 5 0 0 0 - - -;
#X obj 48 90 unpack 0 0;
#X obj 105 460 * 0.00787;
#X obj 103 484 pack 0 500;
#X obj 103 506 line~;
#X obj 105 281 sel 0;
#X obj 177 457 float;
#X text 435 458 [osc~] is the "carrier" oscillator \, whose frequency
is changed by the "modulator".;
#X obj 233 458 float;
#X obj 132 409 t f b;
#X obj 48 167 mtof;
#X obj 48 202 sig~;
#X obj 48 532 *~;
#X obj 105 376 t b b;
#X msg 105 436 0;
#X obj 111 37 r har1;
#X obj 104 322 r modIn1;
#X obj 204 432 r envIn1;
#X obj 260 436 r envOut1;
#X connect 0 0 2 0;
#X connect 1 0 2 1;
#X connect 2 0 3 1;
#X connect 3 0 4 0;
#X connect 4 0 25 0;
#X connect 8 0 23 0;
#X connect 9 0 10 1;
#X connect 10 0 0 0;
#X connect 11 0 14 0;
#X connect 13 0 9 0;
#X connect 14 0 8 0;
#X connect 14 1 18 0;
#X connect 15 0 16 0;
#X connect 16 0 17 0;
#X connect 17 0 25 1;
#X connect 18 0 26 0;
#X connect 18 1 22 0;
#X connect 19 0 16 1;
#X connect 21 0 16 1;
#X connect 22 0 15 0;
#X connect 22 1 19 0;
#X connect 23 0 24 0;
#X connect 24 0 3 0;
#X connect 24 0 10 0;
#X connect 25 0 12 0;
#X connect 26 0 27 0;
#X connect 26 1 21 0;
#X connect 27 0 15 0;
#X connect 28 0 13 0;
#X connect 29 0 1 0;
#X connect 30 0 19 1;
#X connect 31 0 21 1;
#X restore 563 590 pd fm_voice;
#X msg 724 78 \; dur1 500 \; har1 3.14 \; modIn1 200 \; envIn1 5 \;
envOut1 20 \;;
#X connect 0 0 1 0;
#X connect 0 1 1 1;
#X connect 0 2 1 2;
#X connect 1 0 2 0;
#X connect 2 0 29 0;
#X connect 2 1 34 0;
#X connect 2 2 35 0;
#X connect 2 3 36 0;
#X connect 2 4 37 0;
#X connect 2 5 38 0;
#X connect 2 6 39 0;
#X connect 2 7 40 0;
#X connect 3 0 23 0;
#X connect 6 0 4 0;
#X connect 7 0 5 0;
#X connect 8 0 23 0;
#X connect 9 0 12 0;
#X connect 11 0 10 0;
#X connect 13 0 14 0;
#X connect 15 0 17 0;
#X connect 16 0 17 1;
#X connect 17 0 20 0;
#X connect 17 0 23 2;
#X connect 18 0 15 0;
#X connect 18 1 15 1;
#X connect 18 2 16 0;
#X connect 19 0 15 0;
#X connect 19 1 16 0;
#X connect 19 2 16 1;
#X connect 21 0 24 0;
#X connect 22 0 24 1;
#X connect 23 0 0 0;
#X connect 23 1 0 1;
#X connect 24 0 8 0;
#X connect 27 0 41 0;
#X connect 29 0 28 0;
#X connect 30 0 18 0;
#X connect 31 0 19 0;
#X connect 32 0 8 0;
#X connect 33 0 23 1;
#X connect 34 0 28 0;
#X connect 35 0 28 0;
#X connect 36 0 28 0;
#X connect 37 0 28 0;
#X connect 38 0 28 0;
#X connect 39 0 28 0;
#X connect 40 0 28 0;
#X restore 136 -40 pd fm_synth1;
#N canvas 0 0 1362 696 fm_synth2 0;
#X obj 490 282 poly 8;
#X obj 476 322 pack 0 0 0;
#X obj 460 372 route 1 2 3 4 5 6 7 8;
#X msg 432 184 60;
#X obj 696 248 s har;
#X obj 745 249 s modIn;
#X floatatom 698 220 5 0 0 0 - - -;
#X floatatom 745 220 5 0 0 0 - - -;
#X floatatom 460 174 5 0 0 0 - - -;
#X floatatom 808 220 5 0 0 0 - - -;
#X obj 642 248 s dur;
#X floatatom 642 218 5 0 0 0 - - -;
#X obj 808 249 s envIn;
#X floatatom 864 220 5 0 0 0 - - -;
#X obj 864 249 s envOut;
#X obj 549 161 float;
#X obj 589 161 float;
#X obj 549 184 -;
#X obj 549 122 t b f b;
#X obj 607 120 t b b f;
#X floatatom 568 204 5 0 0 0 - - -;
#X obj 389 46 tgl 15 0 empty empty empty 17 7 0 10 -262144 -1 -1 0
1;
#X floatatom 430 49 5 0 0 0 - - -;
#X obj 467 222 makenote 100 500;
#X obj 341 86 metro 1000;
#X msg 1071 79 \; har 6.66 \; modIn 400 \; envIn 5 \; envOut 20 \;
;
#X obj 724 44 loadbang;
#X obj 441 631 outlet~;
#N canvas 0 0 1362 696 fm_voice 0;
#X obj 61 311 osc~;
#X floatatom 77 344 5 0 0 0 - - -;
#X obj 62 383 *~;
#X obj 47 418 +~;
#X obj 47 467 osc~;
#X text 436 389 multiply the modulating signal by the amount of modulation
we want;
#X text 434 298 [osc~] is the "modulator" oscillator. it determines
how quickly the frequency of the carrier oscillator changes \, and
by how much;
#X text 436 137 [mtof~] creates the "carrier" audio signal which will
be modulated;
#X floatatom 48 136 5 0 0 0 - - -;
#X obj 111 179 sig~;
#X obj 61 282 *~;
#X obj 48 36 inlet;
#X obj 47 585 outlet~;
#X floatatom 111 137 5 0 0 0 - - -;
#X obj 48 90 unpack 0 0;
#X obj 105 460 * 0.00787;
#X obj 103 484 pack 0 500;
#X obj 103 506 line~;
#X obj 105 281 sel 0;
#X obj 177 457 float;
#X text 435 458 [osc~] is the "carrier" oscillator \, whose frequency
is changed by the "modulator".;
#X obj 233 458 float;
#X obj 132 409 t f b;
#X obj 48 167 mtof;
#X obj 48 202 sig~;
#X obj 48 532 *~;
#X obj 105 376 t b b;
#X msg 105 436 0;
#X obj 111 37 r har2;
#X obj 104 322 r modIn2;
#X obj 204 432 r envIn2;
#X obj 260 436 r envOut2;
#X connect 0 0 2 0;
#X connect 1 0 2 1;
#X connect 2 0 3 1;
#X connect 3 0 4 0;
#X connect 4 0 25 0;
#X connect 8 0 23 0;
#X connect 9 0 10 1;
#X connect 10 0 0 0;
#X connect 11 0 14 0;
#X connect 13 0 9 0;
#X connect 14 0 8 0;
#X connect 14 1 18 0;
#X connect 15 0 16 0;
#X connect 16 0 17 0;
#X connect 17 0 25 1;
#X connect 18 0 26 0;
#X connect 18 1 22 0;
#X connect 19 0 16 1;
#X connect 21 0 16 1;
#X connect 22 0 15 0;
#X connect 22 1 19 0;
#X connect 23 0 24 0;
#X connect 24 0 3 0;
#X connect 24 0 10 0;
#X connect 25 0 12 0;
#X connect 26 0 27 0;
#X connect 26 1 21 0;
#X connect 27 0 15 0;
#X connect 28 0 13 0;
#X connect 29 0 1 0;
#X connect 30 0 19 1;
#X connect 31 0 21 1;
#X restore 430 402 pd fm_voice;
#X obj 453 108 r note2;
#X obj 549 94 r dur2;
#X obj 607 94 r envOut2;
#X obj 500 190 r vel2;
#N canvas 0 0 1362 696 fm_voice 0;
#X obj 61 311 osc~;
#X floatatom 77 344 5 0 0 0 - - -;
#X obj 62 383 *~;
#X obj 47 418 +~;
#X obj 47 467 osc~;
#X text 436 389 multiply the modulating signal by the amount of modulation
we want;
#X text 434 298 [osc~] is the "modulator" oscillator. it determines
how quickly the frequency of the carrier oscillator changes \, and
by how much;
#X text 436 137 [mtof~] creates the "carrier" audio signal which will
be modulated;
#X floatatom 48 136 5 0 0 0 - - -;
#X obj 111 179 sig~;
#X obj 61 282 *~;
#X obj 48 36 inlet;
#X obj 47 585 outlet~;
#X floatatom 111 137 5 0 0 0 - - -;
#X obj 48 90 unpack 0 0;
#X obj 105 460 * 0.00787;
#X obj 103 484 pack 0 500;
#X obj 103 506 line~;
#X obj 105 281 sel 0;
#X obj 177 457 float;
#X text 435 458 [osc~] is the "carrier" oscillator \, whose frequency
is changed by the "modulator".;
#X obj 233 458 float;
#X obj 132 409 t f b;
#X obj 48 167 mtof;
#X obj 48 202 sig~;
#X obj 48 532 *~;
#X obj 105 376 t b b;
#X msg 105 436 0;
#X obj 111 37 r har2;
#X obj 104 322 r modIn2;
#X obj 204 432 r envIn2;
#X obj 260 436 r envOut2;
#X connect 0 0 2 0;
#X connect 1 0 2 1;
#X connect 2 0 3 1;
#X connect 3 0 4 0;
#X connect 4 0 25 0;
#X connect 8 0 23 0;
#X connect 9 0 10 1;
#X connect 10 0 0 0;
#X connect 11 0 14 0;
#X connect 13 0 9 0;
#X connect 14 0 8 0;
#X connect 14 1 18 0;
#X connect 15 0 16 0;
#X connect 16 0 17 0;
#X connect 17 0 25 1;
#X connect 18 0 26 0;
#X connect 18 1 22 0;
#X connect 19 0 16 1;
#X connect 21 0 16 1;
#X connect 22 0 15 0;
#X connect 22 1 19 0;
#X connect 23 0 24 0;
#X connect 24 0 3 0;
#X connect 24 0 10 0;
#X connect 25 0 12 0;
#X connect 26 0 27 0;
#X connect 26 1 21 0;
#X connect 27 0 15 0;
#X connect 28 0 13 0;
#X connect 29 0 1 0;
#X connect 30 0 19 1;
#X connect 31 0 21 1;
#X restore 447 431 pd fm_voice;
#N canvas 0 0 1362 696 fm_voice 0;
#X obj 61 311 osc~;
#X floatatom 77 344 5 0 0 0 - - -;
#X obj 62 383 *~;
#X obj 47 418 +~;
#X obj 47 467 osc~;
#X text 436 389 multiply the modulating signal by the amount of modulation
we want;
#X text 434 298 [osc~] is the "modulator" oscillator. it determines
how quickly the frequency of the carrier oscillator changes \, and
by how much;
#X text 436 137 [mtof~] creates the "carrier" audio signal which will
be modulated;
#X floatatom 48 136 5 0 0 0 - - -;
#X obj 111 179 sig~;
#X obj 61 282 *~;
#X obj 48 36 inlet;
#X obj 47 585 outlet~;
#X floatatom 111 137 5 0 0 0 - - -;
#X obj 48 90 unpack 0 0;
#X obj 105 460 * 0.00787;
#X obj 103 484 pack 0 500;
#X obj 103 506 line~;
#X obj 105 281 sel 0;
#X obj 177 457 float;
#X text 435 458 [osc~] is the "carrier" oscillator \, whose frequency
is changed by the "modulator".;
#X obj 233 458 float;
#X obj 132 409 t f b;
#X obj 48 167 mtof;
#X obj 48 202 sig~;
#X obj 48 532 *~;
#X obj 105 376 t b b;
#X msg 105 436 0;
#X obj 111 37 r har2;
#X obj 104 322 r modIn2;
#X obj 204 432 r envIn2;
#X obj 260 436 r envOut2;
#X connect 0 0 2 0;
#X connect 1 0 2 1;
#X connect 2 0 3 1;
#X connect 3 0 4 0;
#X connect 4 0 25 0;
#X connect 8 0 23 0;
#X connect 9 0 10 1;
#X connect 10 0 0 0;
#X connect 11 0 14 0;
#X connect 13 0 9 0;
#X connect 14 0 8 0;
#X connect 14 1 18 0;
#X connect 15 0 16 0;
#X connect 16 0 17 0;
#X connect 17 0 25 1;
#X connect 18 0 26 0;
#X connect 18 1 22 0;
#X connect 19 0 16 1;
#X connect 21 0 16 1;
#X connect 22 0 15 0;
#X connect 22 1 19 0;
#X connect 23 0 24 0;
#X connect 24 0 3 0;
#X connect 24 0 10 0;
#X connect 25 0 12 0;
#X connect 26 0 27 0;
#X connect 26 1 21 0;
#X connect 27 0 15 0;
#X connect 28 0 13 0;
#X connect 29 0 1 0;
#X connect 30 0 19 1;
#X connect 31 0 21 1;
#X restore 466 458 pd fm_voice;
#N canvas 0 0 1362 696 fm_voice 0;
#X obj 61 311 osc~;
#X floatatom 77 344 5 0 0 0 - - -;
#X obj 62 383 *~;
#X obj 47 418 +~;
#X obj 47 467 osc~;
#X text 436 389 multiply the modulating signal by the amount of modulation
we want;
#X text 434 298 [osc~] is the "modulator" oscillator. it determines
how quickly the frequency of the carrier oscillator changes \, and
by how much;
#X text 436 137 [mtof~] creates the "carrier" audio signal which will
be modulated;
#X floatatom 48 136 5 0 0 0 - - -;
#X obj 111 179 sig~;
#X obj 61 282 *~;
#X obj 48 36 inlet;
#X obj 47 585 outlet~;
#X floatatom 111 137 5 0 0 0 - - -;
#X obj 48 90 unpack 0 0;
#X obj 105 460 * 0.00787;
#X obj 103 484 pack 0 500;
#X obj 103 506 line~;
#X obj 105 281 sel 0;
#X obj 177 457 float;
#X text 435 458 [osc~] is the "carrier" oscillator \, whose frequency
is changed by the "modulator".;
#X obj 233 458 float;
#X obj 132 409 t f b;
#X obj 48 167 mtof;
#X obj 48 202 sig~;
#X obj 48 532 *~;
#X obj 105 376 t b b;
#X msg 105 436 0;
#X obj 111 37 r har2;
#X obj 104 322 r modIn2;
#X obj 204 432 r envIn2;
#X obj 260 436 r envOut2;
#X connect 0 0 2 0;
#X connect 1 0 2 1;
#X connect 2 0 3 1;
#X connect 3 0 4 0;
#X connect 4 0 25 0;
#X connect 8 0 23 0;
#X connect 9 0 10 1;
#X connect 10 0 0 0;
#X connect 11 0 14 0;
#X connect 13 0 9 0;
#X connect 14 0 8 0;
#X connect 14 1 18 0;
#X connect 15 0 16 0;
#X connect 16 0 17 0;
#X connect 17 0 25 1;
#X connect 18 0 26 0;
#X connect 18 1 22 0;
#X connect 19 0 16 1;
#X connect 21 0 16 1;
#X connect 22 0 15 0;
#X connect 22 1 19 0;
#X connect 23 0 24 0;
#X connect 24 0 3 0;
#X connect 24 0 10 0;
#X connect 25 0 12 0;
#X connect 26 0 27 0;
#X connect 26 1 21 0;
#X connect 27 0 15 0;
#X connect 28 0 13 0;
#X connect 29 0 1 0;
#X connect 30 0 19 1;
#X connect 31 0 21 1;
#X restore 491 481 pd fm_voice;
#N canvas 0 0 1362 696 fm_voice 0;
#X obj 61 311 osc~;
#X floatatom 77 344 5 0 0 0 - - -;
#X obj 62 383 *~;
#X obj 47 418 +~;
#X obj 47 467 osc~;
#X text 436 389 multiply the modulating signal by the amount of modulation
we want;
#X text 434 298 [osc~] is the "modulator" oscillator. it determines
how quickly the frequency of the carrier oscillator changes \, and
by how much;
#X text 436 137 [mtof~] creates the "carrier" audio signal which will
be modulated;
#X floatatom 48 136 5 0 0 0 - - -;
#X obj 111 179 sig~;
#X obj 61 282 *~;
#X obj 48 36 inlet;
#X obj 47 585 outlet~;
#X floatatom 111 137 5 0 0 0 - - -;
#X obj 48 90 unpack 0 0;
#X obj 105 460 * 0.00787;
#X obj 103 484 pack 0 500;
#X obj 103 506 line~;
#X obj 105 281 sel 0;
#X obj 177 457 float;
#X text 435 458 [osc~] is the "carrier" oscillator \, whose frequency
is changed by the "modulator".;
#X obj 233 458 float;
#X obj 132 409 t f b;
#X obj 48 167 mtof;
#X obj 48 202 sig~;
#X obj 48 532 *~;
#X obj 105 376 t b b;
#X msg 105 436 0;
#X obj 111 37 r har2;
#X obj 104 322 r modIn2;
#X obj 204 432 r envIn2;
#X obj 260 436 r envOut2;
#X connect 0 0 2 0;
#X connect 1 0 2 1;
#X connect 2 0 3 1;
#X connect 3 0 4 0;
#X connect 4 0 25 0;
#X connect 8 0 23 0;
#X connect 9 0 10 1;
#X connect 10 0 0 0;
#X connect 11 0 14 0;
#X connect 13 0 9 0;
#X connect 14 0 8 0;
#X connect 14 1 18 0;
#X connect 15 0 16 0;
#X connect 16 0 17 0;
#X connect 17 0 25 1;
#X connect 18 0 26 0;
#X connect 18 1 22 0;
#X connect 19 0 16 1;
#X connect 21 0 16 1;
#X connect 22 0 15 0;
#X connect 22 1 19 0;
#X connect 23 0 24 0;
#X connect 24 0 3 0;
#X connect 24 0 10 0;
#X connect 25 0 12 0;
#X connect 26 0 27 0;
#X connect 26 1 21 0;
#X connect 27 0 15 0;
#X connect 28 0 13 0;
#X connect 29 0 1 0;
#X connect 30 0 19 1;
#X connect 31 0 21 1;
#X restore 517 510 pd fm_voice;
#N canvas 0 0 1362 696 fm_voice 0;
#X obj 61 311 osc~;
#X floatatom 77 344 5 0 0 0 - - -;
#X obj 62 383 *~;
#X obj 47 418 +~;
#X obj 47 467 osc~;
#X text 436 389 multiply the modulating signal by the amount of modulation
we want;
#X text 434 298 [osc~] is the "modulator" oscillator. it determines
how quickly the frequency of the carrier oscillator changes \, and
by how much;
#X text 436 137 [mtof~] creates the "carrier" audio signal which will
be modulated;
#X floatatom 48 136 5 0 0 0 - - -;
#X obj 111 179 sig~;
#X obj 61 282 *~;
#X obj 48 36 inlet;
#X obj 47 585 outlet~;
#X floatatom 111 137 5 0 0 0 - - -;
#X obj 48 90 unpack 0 0;
#X obj 105 460 * 0.00787;
#X obj 103 484 pack 0 500;
#X obj 103 506 line~;
#X obj 105 281 sel 0;
#X obj 177 457 float;
#X text 435 458 [osc~] is the "carrier" oscillator \, whose frequency
is changed by the "modulator".;
#X obj 233 458 float;
#X obj 132 409 t f b;
#X obj 48 167 mtof;
#X obj 48 202 sig~;
#X obj 48 532 *~;
#X obj 105 376 t b b;
#X msg 105 436 0;
#X obj 111 37 r har2;
#X obj 104 322 r modIn2;
#X obj 204 432 r envIn2;
#X obj 260 436 r envOut2;
#X connect 0 0 2 0;
#X connect 1 0 2 1;
#X connect 2 0 3 1;
#X connect 3 0 4 0;
#X connect 4 0 25 0;
#X connect 8 0 23 0;
#X connect 9 0 10 1;
#X connect 10 0 0 0;
#X connect 11 0 14 0;
#X connect 13 0 9 0;
#X connect 14 0 8 0;
#X connect 14 1 18 0;
#X connect 15 0 16 0;
#X connect 16 0 17 0;
#X connect 17 0 25 1;
#X connect 18 0 26 0;
#X connect 18 1 22 0;
#X connect 19 0 16 1;
#X connect 21 0 16 1;
#X connect 22 0 15 0;
#X connect 22 1 19 0;
#X connect 23 0 24 0;
#X connect 24 0 3 0;
#X connect 24 0 10 0;
#X connect 25 0 12 0;
#X connect 26 0 27 0;
#X connect 26 1 21 0;
#X connect 27 0 15 0;
#X connect 28 0 13 0;
#X connect 29 0 1 0;
#X connect 30 0 19 1;
#X connect 31 0 21 1;
#X restore 542 536 pd fm_voice;
#N canvas 0 0 1362 696 fm_voice 0;
#X obj 61 311 osc~;
#X floatatom 77 344 5 0 0 0 - - -;
#X obj 62 383 *~;
#X obj 47 418 +~;
#X obj 47 467 osc~;
#X text 436 389 multiply the modulating signal by the amount of modulation
we want;
#X text 434 298 [osc~] is the "modulator" oscillator. it determines
how quickly the frequency of the carrier oscillator changes \, and
by how much;
#X text 436 137 [mtof~] creates the "carrier" audio signal which will
be modulated;
#X floatatom 48 136 5 0 0 0 - - -;
#X obj 111 179 sig~;
#X obj 61 282 *~;
#X obj 48 36 inlet;
#X obj 47 585 outlet~;
#X floatatom 111 137 5 0 0 0 - - -;
#X obj 48 90 unpack 0 0;
#X obj 105 460 * 0.00787;
#X obj 103 484 pack 0 500;
#X obj 103 506 line~;
#X obj 105 281 sel 0;
#X obj 177 457 float;
#X text 435 458 [osc~] is the "carrier" oscillator \, whose frequency
is changed by the "modulator".;
#X obj 233 458 float;
#X obj 132 409 t f b;
#X obj 48 167 mtof;
#X obj 48 202 sig~;
#X obj 48 532 *~;
#X obj 105 376 t b b;
#X msg 105 436 0;
#X obj 111 37 r har2;
#X obj 104 322 r modIn2;
#X obj 204 432 r envIn2;
#X obj 260 436 r envOut2;
#X connect 0 0 2 0;
#X connect 1 0 2 1;
#X connect 2 0 3 1;
#X connect 3 0 4 0;
#X connect 4 0 25 0;
#X connect 8 0 23 0;
#X connect 9 0 10 1;
#X connect 10 0 0 0;
#X connect 11 0 14 0;
#X connect 13 0 9 0;
#X connect 14 0 8 0;
#X connect 14 1 18 0;
#X connect 15 0 16 0;
#X connect 16 0 17 0;
#X connect 17 0 25 1;
#X connect 18 0 26 0;
#X connect 18 1 22 0;
#X connect 19 0 16 1;
#X connect 21 0 16 1;
#X connect 22 0 15 0;
#X connect 22 1 19 0;
#X connect 23 0 24 0;
#X connect 24 0 3 0;
#X connect 24 0 10 0;
#X connect 25 0 12 0;
#X connect 26 0 27 0;
#X connect 26 1 21 0;
#X connect 27 0 15 0;
#X connect 28 0 13 0;
#X connect 29 0 1 0;
#X connect 30 0 19 1;
#X connect 31 0 21 1;
#X restore 562 560 pd fm_voice;
#N canvas 0 0 1362 696 fm_voice 0;
#X obj 61 311 osc~;
#X floatatom 77 344 5 0 0 0 - - -;
#X obj 62 383 *~;
#X obj 47 418 +~;
#X obj 47 467 osc~;
#X text 436 389 multiply the modulating signal by the amount of modulation
we want;
#X text 434 298 [osc~] is the "modulator" oscillator. it determines
how quickly the frequency of the carrier oscillator changes \, and
by how much;
#X text 436 137 [mtof~] creates the "carrier" audio signal which will
be modulated;
#X floatatom 48 136 5 0 0 0 - - -;
#X obj 111 179 sig~;
#X obj 61 282 *~;
#X obj 48 36 inlet;
#X obj 47 585 outlet~;
#X floatatom 111 137 5 0 0 0 - - -;
#X obj 48 90 unpack 0 0;
#X obj 105 460 * 0.00787;
#X obj 103 484 pack 0 500;
#X obj 103 506 line~;
#X obj 105 281 sel 0;
#X obj 177 457 float;
#X text 435 458 [osc~] is the "carrier" oscillator \, whose frequency
is changed by the "modulator".;
#X obj 233 458 float;
#X obj 132 409 t f b;
#X obj 48 167 mtof;
#X obj 48 202 sig~;
#X obj 48 532 *~;
#X obj 105 376 t b b;
#X msg 105 436 0;
#X obj 111 37 r har2;
#X obj 104 322 r modIn2;
#X obj 204 432 r envIn2;
#X obj 260 436 r envOut2;
#X connect 0 0 2 0;
#X connect 1 0 2 1;
#X connect 2 0 3 1;
#X connect 3 0 4 0;
#X connect 4 0 25 0;
#X connect 8 0 23 0;
#X connect 9 0 10 1;
#X connect 10 0 0 0;
#X connect 11 0 14 0;
#X connect 13 0 9 0;
#X connect 14 0 8 0;
#X connect 14 1 18 0;
#X connect 15 0 16 0;
#X connect 16 0 17 0;
#X connect 17 0 25 1;
#X connect 18 0 26 0;
#X connect 18 1 22 0;
#X connect 19 0 16 1;
#X connect 21 0 16 1;
#X connect 22 0 15 0;
#X connect 22 1 19 0;
#X connect 23 0 24 0;
#X connect 24 0 3 0;
#X connect 24 0 10 0;
#X connect 25 0 12 0;
#X connect 26 0 27 0;
#X connect 26 1 21 0;
#X connect 27 0 15 0;
#X connect 28 0 13 0;
#X connect 29 0 1 0;
#X connect 30 0 19 1;
#X connect 31 0 21 1;
#X restore 576 591 pd fm_voice;
#X msg 724 79 \; dur2 500 \; har2 1.333 \; modIn2 1000 \; envIn2 5
\; envOut2 20 \;;
#X connect 0 0 1 0;
#X connect 0 1 1 1;
#X connect 0 2 1 2;
#X connect 1 0 2 0;
#X connect 2 0 28 0;
#X connect 2 1 33 0;
#X connect 2 2 34 0;
#X connect 2 3 35 0;
#X connect 2 4 36 0;
#X connect 2 5 37 0;
#X connect 2 6 38 0;
#X connect 2 7 39 0;
#X connect 3 0 23 0;
#X connect 6 0 4 0;
#X connect 7 0 5 0;
#X connect 8 0 23 0;
#X connect 9 0 12 0;
#X connect 11 0 10 0;
#X connect 13 0 14 0;
#X connect 15 0 17 0;
#X connect 16 0 17 1;
#X connect 17 0 20 0;
#X connect 17 0 23 2;
#X connect 18 0 15 0;
#X connect 18 1 15 1;
#X connect 18 2 16 0;
#X connect 19 0 15 0;
#X connect 19 1 16 0;
#X connect 19 2 16 1;
#X connect 21 0 24 0;
#X connect 22 0 24 1;
#X connect 23 0 0 0;
#X connect 23 1 0 1;
#X connect 24 0 8 0;
#X connect 26 0 40 0;
#X connect 28 0 27 0;
#X connect 29 0 8 0;
#X connect 30 0 18 0;
#X connect 31 0 19 0;
#X connect 32 0 23 1;
#X connect 33 0 27 0;
#X connect 34 0 27 0;
#X connect 35 0 27 0;
#X connect 36 0 27 0;
#X connect 37 0 27 0;
#X connect 38 0 27 0;
#X connect 39 0 27 0;
#X restore 228 -41 pd fm_synth2;
#N canvas 0 0 1362 696 fm_synth3 0;
#X obj 490 282 poly 8;
#X obj 476 322 pack 0 0 0;
#X obj 460 372 route 1 2 3 4 5 6 7 8;
#X msg 432 184 60;
#X obj 696 248 s har;
#X obj 745 249 s modIn;
#X floatatom 698 220 5 0 0 0 - - -;
#X floatatom 745 220 5 0 0 0 - - -;
#X floatatom 460 174 5 0 0 0 - - -;
#X floatatom 808 220 5 0 0 0 - - -;
#X obj 642 248 s dur;
#X floatatom 642 218 5 0 0 0 - - -;
#X obj 808 249 s envIn;
#X floatatom 864 220 5 0 0 0 - - -;
#X obj 864 249 s envOut;
#X obj 549 161 float;
#X obj 589 161 float;
#X obj 549 184 -;
#X obj 549 122 t b f b;
#X obj 607 120 t b b f;
#X floatatom 568 204 5 0 0 0 - - -;
#X obj 391 46 tgl 15 0 empty empty empty 17 7 0 10 -262144 -1 -1 0
1;
#X floatatom 430 49 5 0 0 0 - - -;
#X obj 467 222 makenote 100 500;
#X obj 341 86 metro 1000;
#X obj 724 44 loadbang;
#X obj 441 631 outlet~;
#N canvas 0 0 1362 696 fm_voice 0;
#X obj 61 311 osc~;
#X floatatom 77 344 5 0 0 0 - - -;
#X obj 62 383 *~;
#X obj 47 418 +~;
#X obj 47 467 osc~;
#X text 436 389 multiply the modulating signal by the amount of modulation
we want;
#X text 434 298 [osc~] is the "modulator" oscillator. it determines
how quickly the frequency of the carrier oscillator changes \, and
by how much;
#X text 436 137 [mtof~] creates the "carrier" audio signal which will
be modulated;
#X floatatom 48 136 5 0 0 0 - - -;
#X obj 111 179 sig~;
#X obj 61 282 *~;
#X obj 48 36 inlet;
#X obj 47 585 outlet~;
#X floatatom 111 137 5 0 0 0 - - -;
#X obj 48 90 unpack 0 0;
#X obj 105 460 * 0.00787;
#X obj 103 484 pack 0 500;
#X obj 103 506 line~;
#X obj 105 281 sel 0;
#X obj 177 457 float;
#X text 435 458 [osc~] is the "carrier" oscillator \, whose frequency
is changed by the "modulator".;
#X obj 233 458 float;
#X obj 132 409 t f b;
#X obj 48 167 mtof;
#X obj 48 202 sig~;
#X obj 48 532 *~;
#X obj 105 376 t b b;
#X msg 105 436 0;
#X obj 111 37 r har3;
#X obj 104 322 r modIn3;
#X obj 204 432 r envIn3;
#X obj 260 436 r envOut3;
#X connect 0 0 2 0;
#X connect 1 0 2 1;
#X connect 2 0 3 1;
#X connect 3 0 4 0;
#X connect 4 0 25 0;
#X connect 8 0 23 0;
#X connect 9 0 10 1;
#X connect 10 0 0 0;
#X connect 11 0 14 0;
#X connect 13 0 9 0;
#X connect 14 0 8 0;
#X connect 14 1 18 0;
#X connect 15 0 16 0;
#X connect 16 0 17 0;
#X connect 17 0 25 1;
#X connect 18 0 26 0;
#X connect 18 1 22 0;
#X connect 19 0 16 1;
#X connect 21 0 16 1;
#X connect 22 0 15 0;
#X connect 22 1 19 0;
#X connect 23 0 24 0;
#X connect 24 0 3 0;
#X connect 24 0 10 0;
#X connect 25 0 12 0;
#X connect 26 0 27 0;
#X connect 26 1 21 0;
#X connect 27 0 15 0;
#X connect 28 0 13 0;
#X connect 29 0 1 0;
#X connect 30 0 19 1;
#X connect 31 0 21 1;
#X restore 430 402 pd fm_voice;
#X obj 549 94 r dur3;
#X obj 608 94 r envOut3;
#X obj 453 108 r note3;
#X obj 500 190 r vel3;
#N canvas 0 0 1362 696 fm_voice 0;
#X obj 61 311 osc~;
#X floatatom 77 344 5 0 0 0 - - -;
#X obj 62 383 *~;
#X obj 47 418 +~;
#X obj 47 467 osc~;
#X text 436 389 multiply the modulating signal by the amount of modulation
we want;
#X text 434 298 [osc~] is the "modulator" oscillator. it determines
how quickly the frequency of the carrier oscillator changes \, and
by how much;
#X text 436 137 [mtof~] creates the "carrier" audio signal which will
be modulated;
#X floatatom 48 136 5 0 0 0 - - -;
#X obj 111 179 sig~;
#X obj 61 282 *~;
#X obj 48 36 inlet;
#X obj 47 585 outlet~;
#X floatatom 111 137 5 0 0 0 - - -;
#X obj 48 90 unpack 0 0;
#X obj 105 460 * 0.00787;
#X obj 103 484 pack 0 500;
#X obj 103 506 line~;
#X obj 105 281 sel 0;
#X obj 177 457 float;
#X text 435 458 [osc~] is the "carrier" oscillator \, whose frequency
is changed by the "modulator".;
#X obj 233 458 float;
#X obj 132 409 t f b;
#X obj 48 167 mtof;
#X obj 48 202 sig~;
#X obj 48 532 *~;
#X obj 105 376 t b b;
#X msg 105 436 0;
#X obj 111 37 r har3;
#X obj 104 322 r modIn3;
#X obj 204 432 r envIn3;
#X obj 260 436 r envOut3;
#X connect 0 0 2 0;
#X connect 1 0 2 1;
#X connect 2 0 3 1;
#X connect 3 0 4 0;
#X connect 4 0 25 0;
#X connect 8 0 23 0;
#X connect 9 0 10 1;
#X connect 10 0 0 0;
#X connect 11 0 14 0;
#X connect 13 0 9 0;
#X connect 14 0 8 0;
#X connect 14 1 18 0;
#X connect 15 0 16 0;
#X connect 16 0 17 0;
#X connect 17 0 25 1;
#X connect 18 0 26 0;
#X connect 18 1 22 0;
#X connect 19 0 16 1;
#X connect 21 0 16 1;
#X connect 22 0 15 0;
#X connect 22 1 19 0;
#X connect 23 0 24 0;
#X connect 24 0 3 0;
#X connect 24 0 10 0;
#X connect 25 0 12 0;
#X connect 26 0 27 0;
#X connect 26 1 21 0;
#X connect 27 0 15 0;
#X connect 28 0 13 0;
#X connect 29 0 1 0;
#X connect 30 0 19 1;
#X connect 31 0 21 1;
#X restore 449 427 pd fm_voice;
#N canvas 0 0 1362 696 fm_voice 0;
#X obj 61 311 osc~;
#X floatatom 77 344 5 0 0 0 - - -;
#X obj 62 383 *~;
#X obj 47 418 +~;
#X obj 47 467 osc~;
#X text 436 389 multiply the modulating signal by the amount of modulation
we want;
#X text 434 298 [osc~] is the "modulator" oscillator. it determines
how quickly the frequency of the carrier oscillator changes \, and
by how much;
#X text 436 137 [mtof~] creates the "carrier" audio signal which will
be modulated;
#X floatatom 48 136 5 0 0 0 - - -;
#X obj 111 179 sig~;
#X obj 61 282 *~;
#X obj 48 36 inlet;
#X obj 47 585 outlet~;
#X floatatom 111 137 5 0 0 0 - - -;
#X obj 48 90 unpack 0 0;
#X obj 105 460 * 0.00787;
#X obj 103 484 pack 0 500;
#X obj 103 506 line~;
#X obj 105 281 sel 0;
#X obj 177 457 float;
#X text 435 458 [osc~] is the "carrier" oscillator \, whose frequency
is changed by the "modulator".;
#X obj 233 458 float;
#X obj 132 409 t f b;
#X obj 48 167 mtof;
#X obj 48 202 sig~;
#X obj 48 532 *~;
#X obj 105 376 t b b;
#X msg 105 436 0;
#X obj 111 37 r har3;
#X obj 104 322 r modIn3;
#X obj 204 432 r envIn3;
#X obj 260 436 r envOut3;
#X connect 0 0 2 0;
#X connect 1 0 2 1;
#X connect 2 0 3 1;
#X connect 3 0 4 0;
#X connect 4 0 25 0;
#X connect 8 0 23 0;
#X connect 9 0 10 1;
#X connect 10 0 0 0;
#X connect 11 0 14 0;
#X connect 13 0 9 0;
#X connect 14 0 8 0;
#X connect 14 1 18 0;
#X connect 15 0 16 0;
#X connect 16 0 17 0;
#X connect 17 0 25 1;
#X connect 18 0 26 0;
#X connect 18 1 22 0;
#X connect 19 0 16 1;
#X connect 21 0 16 1;
#X connect 22 0 15 0;
#X connect 22 1 19 0;
#X connect 23 0 24 0;
#X connect 24 0 3 0;
#X connect 24 0 10 0;
#X connect 25 0 12 0;
#X connect 26 0 27 0;
#X connect 26 1 21 0;
#X connect 27 0 15 0;
#X connect 28 0 13 0;
#X connect 29 0 1 0;
#X connect 30 0 19 1;
#X connect 31 0 21 1;
#X restore 473 451 pd fm_voice;
#N canvas 0 0 1362 696 fm_voice 0;
#X obj 61 311 osc~;
#X floatatom 77 344 5 0 0 0 - - -;
#X obj 62 383 *~;
#X obj 47 418 +~;
#X obj 47 467 osc~;
#X text 436 389 multiply the modulating signal by the amount of modulation
we want;
#X text 434 298 [osc~] is the "modulator" oscillator. it determines
how quickly the frequency of the carrier oscillator changes \, and
by how much;
#X text 436 137 [mtof~] creates the "carrier" audio signal which will
be modulated;
#X floatatom 48 136 5 0 0 0 - - -;
#X obj 111 179 sig~;
#X obj 61 282 *~;
#X obj 48 36 inlet;
#X obj 47 585 outlet~;
#X floatatom 111 137 5 0 0 0 - - -;
#X obj 48 90 unpack 0 0;
#X obj 105 460 * 0.00787;
#X obj 103 484 pack 0 500;
#X obj 103 506 line~;
#X obj 105 281 sel 0;
#X obj 177 457 float;
#X text 435 458 [osc~] is the "carrier" oscillator \, whose frequency
is changed by the "modulator".;
#X obj 233 458 float;
#X obj 132 409 t f b;
#X obj 48 167 mtof;
#X obj 48 202 sig~;
#X obj 48 532 *~;
#X obj 105 376 t b b;
#X msg 105 436 0;
#X obj 111 37 r har3;
#X obj 104 322 r modIn3;
#X obj 204 432 r envIn3;
#X obj 260 436 r envOut3;
#X connect 0 0 2 0;
#X connect 1 0 2 1;
#X connect 2 0 3 1;
#X connect 3 0 4 0;
#X connect 4 0 25 0;
#X connect 8 0 23 0;
#X connect 9 0 10 1;
#X connect 10 0 0 0;
#X connect 11 0 14 0;
#X connect 13 0 9 0;
#X connect 14 0 8 0;
#X connect 14 1 18 0;
#X connect 15 0 16 0;
#X connect 16 0 17 0;
#X connect 17 0 25 1;
#X connect 18 0 26 0;
#X connect 18 1 22 0;
#X connect 19 0 16 1;
#X connect 21 0 16 1;
#X connect 22 0 15 0;
#X connect 22 1 19 0;
#X connect 23 0 24 0;
#X connect 24 0 3 0;
#X connect 24 0 10 0;
#X connect 25 0 12 0;
#X connect 26 0 27 0;
#X connect 26 1 21 0;
#X connect 27 0 15 0;
#X connect 28 0 13 0;
#X connect 29 0 1 0;
#X connect 30 0 19 1;
#X connect 31 0 21 1;
#X restore 498 473 pd fm_voice;
#N canvas 0 0 1362 696 fm_voice 0;
#X obj 61 311 osc~;
#X floatatom 77 344 5 0 0 0 - - -;
#X obj 62 383 *~;
#X obj 47 418 +~;
#X obj 47 467 osc~;
#X text 436 389 multiply the modulating signal by the amount of modulation
we want;
#X text 434 298 [osc~] is the "modulator" oscillator. it determines
how quickly the frequency of the carrier oscillator changes \, and
by how much;
#X text 436 137 [mtof~] creates the "carrier" audio signal which will
be modulated;
#X floatatom 48 136 5 0 0 0 - - -;
#X obj 111 179 sig~;
#X obj 61 282 *~;
#X obj 48 36 inlet;
#X obj 47 585 outlet~;
#X floatatom 111 137 5 0 0 0 - - -;
#X obj 48 90 unpack 0 0;
#X obj 105 460 * 0.00787;
#X obj 103 484 pack 0 500;
#X obj 103 506 line~;
#X obj 105 281 sel 0;
#X obj 177 457 float;
#X text 435 458 [osc~] is the "carrier" oscillator \, whose frequency
is changed by the "modulator".;
#X obj 233 458 float;
#X obj 132 409 t f b;
#X obj 48 167 mtof;
#X obj 48 202 sig~;
#X obj 48 532 *~;
#X obj 105 376 t b b;
#X msg 105 436 0;
#X obj 111 37 r har3;
#X obj 104 322 r modIn3;
#X obj 204 432 r envIn3;
#X obj 260 436 r envOut3;
#X connect 0 0 2 0;
#X connect 1 0 2 1;
#X connect 2 0 3 1;
#X connect 3 0 4 0;
#X connect 4 0 25 0;
#X connect 8 0 23 0;
#X connect 9 0 10 1;
#X connect 10 0 0 0;
#X connect 11 0 14 0;
#X connect 13 0 9 0;
#X connect 14 0 8 0;
#X connect 14 1 18 0;
#X connect 15 0 16 0;
#X connect 16 0 17 0;
#X connect 17 0 25 1;
#X connect 18 0 26 0;
#X connect 18 1 22 0;
#X connect 19 0 16 1;
#X connect 21 0 16 1;
#X connect 22 0 15 0;
#X connect 22 1 19 0;
#X connect 23 0 24 0;
#X connect 24 0 3 0;
#X connect 24 0 10 0;
#X connect 25 0 12 0;
#X connect 26 0 27 0;
#X connect 26 1 21 0;
#X connect 27 0 15 0;
#X connect 28 0 13 0;
#X connect 29 0 1 0;
#X connect 30 0 19 1;
#X connect 31 0 21 1;
#X restore 509 495 pd fm_voice;
#N canvas 0 0 1362 696 fm_voice 0;
#X obj 61 311 osc~;
#X floatatom 77 344 5 0 0 0 - - -;
#X obj 62 383 *~;
#X obj 47 418 +~;
#X obj 47 467 osc~;
#X text 436 389 multiply the modulating signal by the amount of modulation
we want;
#X text 434 298 [osc~] is the "modulator" oscillator. it determines
how quickly the frequency of the carrier oscillator changes \, and
by how much;
#X text 436 137 [mtof~] creates the "carrier" audio signal which will
be modulated;
#X floatatom 48 136 5 0 0 0 - - -;
#X obj 111 179 sig~;
#X obj 61 282 *~;
#X obj 48 36 inlet;
#X obj 47 585 outlet~;
#X floatatom 111 137 5 0 0 0 - - -;
#X obj 48 90 unpack 0 0;
#X obj 105 460 * 0.00787;
#X obj 103 484 pack 0 500;
#X obj 103 506 line~;
#X obj 105 281 sel 0;
#X obj 177 457 float;
#X text 435 458 [osc~] is the "carrier" oscillator \, whose frequency
is changed by the "modulator".;
#X obj 233 458 float;
#X obj 132 409 t f b;
#X obj 48 167 mtof;
#X obj 48 202 sig~;
#X obj 48 532 *~;
#X obj 105 376 t b b;
#X msg 105 436 0;
#X obj 111 37 r har3;
#X obj 104 322 r modIn3;
#X obj 204 432 r envIn3;
#X obj 260 436 r envOut3;
#X connect 0 0 2 0;
#X connect 1 0 2 1;
#X connect 2 0 3 1;
#X connect 3 0 4 0;
#X connect 4 0 25 0;
#X connect 8 0 23 0;
#X connect 9 0 10 1;
#X connect 10 0 0 0;
#X connect 11 0 14 0;
#X connect 13 0 9 0;
#X connect 14 0 8 0;
#X connect 14 1 18 0;
#X connect 15 0 16 0;
#X connect 16 0 17 0;
#X connect 17 0 25 1;
#X connect 18 0 26 0;
#X connect 18 1 22 0;
#X connect 19 0 16 1;
#X connect 21 0 16 1;
#X connect 22 0 15 0;
#X connect 22 1 19 0;
#X connect 23 0 24 0;
#X connect 24 0 3 0;
#X connect 24 0 10 0;
#X connect 25 0 12 0;
#X connect 26 0 27 0;
#X connect 26 1 21 0;
#X connect 27 0 15 0;
#X connect 28 0 13 0;
#X connect 29 0 1 0;
#X connect 30 0 19 1;
#X connect 31 0 21 1;
#X restore 523 520 pd fm_voice;
#N canvas 0 0 1362 696 fm_voice 0;
#X obj 61 311 osc~;
#X floatatom 77 344 5 0 0 0 - - -;
#X obj 62 383 *~;
#X obj 47 418 +~;
#X obj 47 467 osc~;
#X text 436 389 multiply the modulating signal by the amount of modulation
we want;
#X text 434 298 [osc~] is the "modulator" oscillator. it determines
how quickly the frequency of the carrier oscillator changes \, and
by how much;
#X text 436 137 [mtof~] creates the "carrier" audio signal which will
be modulated;
#X floatatom 48 136 5 0 0 0 - - -;
#X obj 111 179 sig~;
#X obj 61 282 *~;
#X obj 48 36 inlet;
#X obj 47 585 outlet~;
#X floatatom 111 137 5 0 0 0 - - -;
#X obj 48 90 unpack 0 0;
#X obj 105 460 * 0.00787;
#X obj 103 484 pack 0 500;
#X obj 103 506 line~;
#X obj 105 281 sel 0;
#X obj 177 457 float;
#X text 435 458 [osc~] is the "carrier" oscillator \, whose frequency
is changed by the "modulator".;
#X obj 233 458 float;
#X obj 132 409 t f b;
#X obj 48 167 mtof;
#X obj 48 202 sig~;
#X obj 48 532 *~;
#X obj 105 376 t b b;
#X msg 105 436 0;
#X obj 111 37 r har3;
#X obj 104 322 r modIn3;
#X obj 204 432 r envIn3;
#X obj 260 436 r envOut3;
#X connect 0 0 2 0;
#X connect 1 0 2 1;
#X connect 2 0 3 1;
#X connect 3 0 4 0;
#X connect 4 0 25 0;
#X connect 8 0 23 0;
#X connect 9 0 10 1;
#X connect 10 0 0 0;
#X connect 11 0 14 0;
#X connect 13 0 9 0;
#X connect 14 0 8 0;
#X connect 14 1 18 0;
#X connect 15 0 16 0;
#X connect 16 0 17 0;
#X connect 17 0 25 1;
#X connect 18 0 26 0;
#X connect 18 1 22 0;
#X connect 19 0 16 1;
#X connect 21 0 16 1;
#X connect 22 0 15 0;
#X connect 22 1 19 0;
#X connect 23 0 24 0;
#X connect 24 0 3 0;
#X connect 24 0 10 0;
#X connect 25 0 12 0;
#X connect 26 0 27 0;
#X connect 26 1 21 0;
#X connect 27 0 15 0;
#X connect 28 0 13 0;
#X connect 29 0 1 0;
#X connect 30 0 19 1;
#X connect 31 0 21 1;
#X restore 535 543 pd fm_voice;
#N canvas 0 0 1362 696 fm_voice 0;
#X obj 61 311 osc~;
#X floatatom 77 344 5 0 0 0 - - -;
#X obj 62 383 *~;
#X obj 47 418 +~;
#X obj 47 467 osc~;
#X text 436 389 multiply the modulating signal by the amount of modulation
we want;
#X text 434 298 [osc~] is the "modulator" oscillator. it determines
how quickly the frequency of the carrier oscillator changes \, and
by how much;
#X text 436 137 [mtof~] creates the "carrier" audio signal which will
be modulated;
#X floatatom 48 136 5 0 0 0 - - -;
#X obj 111 179 sig~;
#X obj 61 282 *~;
#X obj 48 36 inlet;
#X obj 47 585 outlet~;
#X floatatom 111 137 5 0 0 0 - - -;
#X obj 48 90 unpack 0 0;
#X obj 105 460 * 0.00787;
#X obj 103 484 pack 0 500;
#X obj 103 506 line~;
#X obj 105 281 sel 0;
#X obj 177 457 float;
#X text 435 458 [osc~] is the "carrier" oscillator \, whose frequency
is changed by the "modulator".;
#X obj 233 458 float;
#X obj 132 409 t f b;
#X obj 48 167 mtof;
#X obj 48 202 sig~;
#X obj 48 532 *~;
#X obj 105 376 t b b;
#X msg 105 436 0;
#X obj 111 37 r har3;
#X obj 104 322 r modIn3;
#X obj 204 432 r envIn3;
#X obj 260 436 r envOut3;
#X connect 0 0 2 0;
#X connect 1 0 2 1;
#X connect 2 0 3 1;
#X connect 3 0 4 0;
#X connect 4 0 25 0;
#X connect 8 0 23 0;
#X connect 9 0 10 1;
#X connect 10 0 0 0;
#X connect 11 0 14 0;
#X connect 13 0 9 0;
#X connect 14 0 8 0;
#X connect 14 1 18 0;
#X connect 15 0 16 0;
#X connect 16 0 17 0;
#X connect 17 0 25 1;
#X connect 18 0 26 0;
#X connect 18 1 22 0;
#X connect 19 0 16 1;
#X connect 21 0 16 1;
#X connect 22 0 15 0;
#X connect 22 1 19 0;
#X connect 23 0 24 0;
#X connect 24 0 3 0;
#X connect 24 0 10 0;
#X connect 25 0 12 0;
#X connect 26 0 27 0;
#X connect 26 1 21 0;
#X connect 27 0 15 0;
#X connect 28 0 13 0;
#X connect 29 0 1 0;
#X connect 30 0 19 1;
#X connect 31 0 21 1;
#X restore 549 567 pd fm_voice;
#X msg 724 79 \; dur3 500 \; har3 6.66 \; modIn3 400 \; envIn3 5 \;
envOut3 20 \;;
#X connect 0 0 1 0;
#X connect 0 1 1 1;
#X connect 0 2 1 2;
#X connect 1 0 2 0;
#X connect 2 0 27 0;
#X connect 2 1 32 0;
#X connect 2 2 33 0;
#X connect 2 3 34 0;
#X connect 2 4 35 0;
#X connect 2 5 36 0;
#X connect 2 6 37 0;
#X connect 2 7 38 0;
#X connect 3 0 23 0;
#X connect 6 0 4 0;
#X connect 7 0 5 0;
#X connect 8 0 23 0;
#X connect 9 0 12 0;
#X connect 11 0 10 0;
#X connect 13 0 14 0;
#X connect 15 0 17 0;
#X connect 16 0 17 1;
#X connect 17 0 20 0;
#X connect 17 0 23 2;
#X connect 18 0 15 0;
#X connect 18 1 15 1;
#X connect 18 2 16 0;
#X connect 19 0 15 0;
#X connect 19 1 16 0;
#X connect 19 2 16 1;
#X connect 21 0 24 0;
#X connect 22 0 24 1;
#X connect 23 0 0 0;
#X connect 23 1 0 1;
#X connect 24 0 8 0;
#X connect 25 0 39 0;
#X connect 27 0 26 0;
#X connect 28 0 18 0;
#X connect 29 0 19 0;
#X connect 30 0 8 0;
#X connect 31 0 23 1;
#X connect 32 0 26 0;
#X connect 33 0 26 0;
#X connect 34 0 26 0;
#X connect 35 0 26 0;
#X connect 36 0 26 0;
#X connect 37 0 26 0;
#X connect 38 0 26 0;
#X restore 315 -39 pd fm_synth3;
#X connect 1 0 2 1;
#X connect 2 0 0 0;
#X connect 2 0 0 1;
#X connect 3 0 2 0;
#X connect 4 0 2 0;
#X connect 5 0 2 0;
#X connect 6 0 2 0;
